<?xml version="1.0" standalone="no"?>
<!DOCTYPE svg PUBLIC "-//W3C//DTD SVG 1.1//EN" "http://www.w3.org/Graphics/SVG/1.1/DTD/svg11.dtd" >
<svg xmlns="http://www.w3.org/2000/svg" xmlns:xlink="http://www.w3.org/1999/xlink" version="1.1">
<metadata>
Created by FontForge 20150318 at Tue Jul 28 13:33:28 2015
 By uniteet7
Copyright (c) 2012 by Arnold Hoepker. All rights reserved.
</metadata>
<defs>
<font id="zaguaticaExtraBoldOblique" horiz-adv-x="802" >
  <font-face 
    font-family="zaguaticaExtraBoldOblique"
    font-weight="800"
    font-style="oblique"
    font-stretch="normal"
    units-per-em="1000"
    panose-1="0 0 0 0 0 0 0 0 0 0"
    ascent="720"
    descent="-280"
    x-height="640"
    cap-height="1005"
    bbox="-328 -351.533 1460 1422"
    underline-thickness="50"
    underline-position="-50"
    unicode-range="U+0020-FB01"
  />
<missing-glyph horiz-adv-x="322" 
 />
    <glyph glyph-name=".notdef" horiz-adv-x="322" 
 />
    <glyph glyph-name=".null" horiz-adv-x="0" 
 />
    <glyph glyph-name="nonmarkingreturn" horiz-adv-x="333" 
 />
    <glyph glyph-name="space" unicode=" " horiz-adv-x="322" 
 />
    <glyph glyph-name="exclam" unicode="!" horiz-adv-x="200" 
d="M136 -13h-142l3 13q4 50 10 78q7 37 28 85h138q1 -41 -8 -85q-4 -17 -29 -91zM110 209q-35 0 -74 9l145 696q37 11 81 11q20 0 79 -9l-146 -698q-56 -9 -85 -9z" />
    <glyph glyph-name="quotedbl" unicode="&#x22;" horiz-adv-x="407" 
d="M353 863q-3 -10 -21 -58.5t-25 -71.5q-7 -5 -39 -6.5t-60 -0.5l-29 1q2 29 4 77.5t2 57.5q6 82 28 140h171q-2 -62 -31 -139zM364 727q2 29 4 77.5t2 57.5q6 82 28 140h171q-3 -72 -25 -140q-6 -19 -19.5 -64t-19.5 -64q-17 -13 -141 -7z" />
    <glyph glyph-name="numbersign" unicode="#" horiz-adv-x="1150" 
d="M811 584h-187l-85 -182h187zM1237 584h-255l-85 -183l255 -1q-33 -103 -77 -165l-254 1l-115 -247q-107 -19 -169 3l113 245h-188l-114 -248q-107 -19 -169 3l113 245h-254q5 31 23.5 72.5t34.5 66.5l16 26h256l85 182h-253q4 31 22.5 72.5t35.5 67.5l16 25h256l116 248
q31 7 73 7t69 -4l27 -3l-115 -248h188l116 248q31 7 73 7t69 -4l27 -3l-115 -248h255q-32 -105 -76 -165z" />
    <glyph glyph-name="dollar" unicode="$" horiz-adv-x="619" 
d="M452 330q-16 18 -25 26l-36 -120q46 1 81 17q15 7 16 11q0 25 -36 66zM324 752q-17 -7 -19 -14q0 -28 36 -67q4 -5 25 -26l36 124q-45 -2 -78 -17zM517 111q-76 -35 -169 -35h-1l-22 -76q-91 -20 -142 2l28 95q-107 34 -176 115q14 27 47.5 57t59.5 46l27 16
q37 -46 89 -69l55 193q-57 48 -89.5 80t-59 81.5t-22.5 98.5q4 56 40.5 103.5t97.5 76.5q75 35 167 35l22 77q27 7 62.5 7t57.5 -4l22 -3l-28 -99q103 -33 176 -119q-6 -9 -18 -23.5t-47 -46t-70 -47.5q-43 48 -88 69l-56 -194q57 -48 89.5 -80t59 -81.5t23.5 -98.5
q-4 -55 -40 -101.5t-95 -74.5z" />
    <glyph glyph-name="percent" unicode="%" horiz-adv-x="1148" 
d="M418 809q-39 0 -72 -27.5t-41 -65.5t13 -65.5t60 -27.5q38 0 71.5 27.5t41.5 65.5t-13.5 65.5t-59.5 27.5zM964 336q-38 0 -70.5 -27.5t-40.5 -65.5t13 -65t59 -27t71.5 27t41.5 65t-14 65.5t-60 27.5zM344 461q-106 0 -165 74.5t-37 180.5t113.5 181t197.5 75t165 -75
t36 -181q-22 -106 -113 -180.5t-197 -74.5zM991 996l-466 -1007q-107 -19 -170 3l467 1004q31 8 73 8t69 -4zM890 -13q-106 0 -164.5 75t-35.5 181t113 181t196 75t165 -75t37 -181t-113.5 -181t-197.5 -75z" />
    <glyph glyph-name="ampersand" unicode="&#x26;" horiz-adv-x="623" 
d="M211 159l40 187q-43 -22 -61 -75q-20 -59 21 -112zM600 969q-10 5 -18 5q-7 0 -22 -5q-38 -15 -61 -63q-23 -46 -15 -100q59 18 89 45q16 15 28 39.5t13 44.5q0 26 -14 34zM456 5q-84 -51 -174 -51q-29 0 -56 6q-109 22 -162 114q-52 92 -17 197q31 95 114 157.5
t199 53.5q26 -2 41 -7t19.5 -10.5t2.5 -13.5q-36 -128 -73 -342q33 10 48 20q57 35 81 91q26 62 13.5 129.5t-59.5 124.5q-47 55 -81 127q-64 -8 -162 -8q-7 82 32 150q38 0 88 2q-10 98 36 190q66 134 186 178q105 40 180 -9q73 -47 68 -150q-4 -60 -35 -123t-79 -106
q-60 -54 -146 -86q19 -29 41 -56q68 -83 84 -186.5t-25 -204.5q-49 -118 -164 -187z" />
    <glyph glyph-name="quotesingle" unicode="'" horiz-adv-x="222" 
d="M342 863q-7 -20 -23 -61.5t-23 -62.5q-6 -5 -38 -8t-61 -3l-29 -1q2 27 3.5 71.5t2.5 63.5q5 78 28 140h172q-4 -63 -32 -139z" />
    <glyph glyph-name="parenleft" unicode="(" horiz-adv-x="374" 
d="M213 -108q-95 122 -126.5 274t3.5 317q34 165 130 316.5t243 273.5q31 -13 53 -40.5t28 -48.5l6 -21q-228 -188 -290 -480q-63 -291 86 -481q-54 -69 -133 -110z" />
    <glyph glyph-name="parenright" unicode=")" horiz-adv-x="378" 
d="M71 -108q-27 18 -49 45.5t-30 46.5l-8 18q231 190 294 481q62 290 -88 480q6 9 16.5 23t45.5 44t71 43q95 -122 126.5 -273.5t-3.5 -316.5q-35 -166 -131 -317.5t-244 -273.5z" />
    <glyph glyph-name="asterisk" unicode="*" horiz-adv-x="628" 
d="M657 283h-140l77 -99q-52 -57 -114 -95l-77 98l-30 -139q-72 -11 -135 0l30 139l-118 -96q-22 15 -40.5 39t-25.5 40l-8 16l117 97h-137q-1 28 6 62t15 53l8 20h137l-77 95q20 26 49 50t48 35l18 11l77 -97l29 137q30 7 63.5 7t52.5 -4l19 -3l-29 -137l119 98
q48 -41 74 -94l-119 -98h140q-4 -70 -29 -135z" />
    <glyph glyph-name="plus" unicode="+" horiz-adv-x="529" 
d="M558 255h-517l3 12q0 37 6 63q5 23 25 70h514q1 -38 -5 -71q-6 -26 -26 -74zM260 60q-34 0 -63 8l-4 7l109 512h11q29 7 60 7q21 0 73 -10l-107 -504q-42 -20 -79 -20z" />
    <glyph glyph-name="comma" unicode="," horiz-adv-x="187" 
d="M64 -108h-96q26 65 38 132.5t12 102.5l-1 35h149q-4 -113 -102 -270z" />
    <glyph glyph-name="hyphen" unicode="-" horiz-adv-x="425" 
d="M407 215h-374l2 12q2 41 7 63q6 29 25 70h371q0 -46 -6 -71q-3 -18 -25 -74z" />
    <glyph glyph-name="period" unicode="." horiz-adv-x="196" 
d="M126 -13h-142l3 13q4 50 10 78q7 37 28 85h138q-1 -52 -8 -85q-4 -17 -29 -91z" />
    <glyph glyph-name="slash" unicode="/" horiz-adv-x="425" 
d="M619 997l-467 -1008q-105 -19 -169 3l467 1005q31 7 73 7t69 -4z" />
    <glyph glyph-name="zero" unicode="0" 
d="M528 597q-96 0 -179 -68.5t-104 -165.5q-10 -50 1 -99l376 311q-42 22 -94 22zM710 463l-376 -311q40 -21 95 -21q97 0 180 68t103 164q11 50 -2 100zM395 -28q-162 0 -252 115t-55 276q35 162 173 277t300 115t252.5 -115t56.5 -277q-35 -161 -174 -276t-301 -115z" />
    <glyph glyph-name="one" unicode="1" 
d="M403 -9l157 738l-73 -59q-8 7 -20.5 18t-37 42t-32.5 57l220 181q28 7 68 7t65 -3l26 -4l-208 -978q-106 -19 -165 1z" />
    <glyph glyph-name="two" unicode="2" 
d="M715 441l-347 -285h335q1 -31 -8 -73t-18 -69l-9 -27h-578q2 85 26 145q2 4 4 10l2 2l-1 -1l5 9l495 408q61 50 75 118q15 67 -25 118q-38 49 -108 48t-135 -54q-9 4 -21.5 13.5t-35.5 38.5t-37 66q124 102 264.5 103.5t216.5 -96.5q78 -99 49 -237t-149 -237z" />
    <glyph glyph-name="three" unicode="3" 
d="M504 491l-66 -32q-2 1 -6 3.5t-15.5 10.5t-21.5 17.5t-22 25.5t-20 34l299 280h-376q4 103 38 168h600q2 -32 -2 -43q-1 -37 -30 -118l-5 -4l-224 -209q64 -47 99 -120.5t14 -168.5q-28 -137 -137 -237q-134 -126 -321 -126q-25 0 -81 7q1 6 -0.5 26.5t8.5 64.5t30 79
q41 -9 79 -9q54 0 107 18.5t85 55.5q36 41 49 100t-3 108q-21 62 -78 69z" />
    <glyph glyph-name="four" unicode="4" 
d="M629 417l61 288l-269 -288h208zM538 -10l55 257h-437q2 105 33 163l568 587q39 8 75.5 8t63.5 -5l26 -4l-214 -1006q-100 -18 -170 0z" />
    <glyph glyph-name="five" unicode="5" 
d="M652 83q-144 -116 -305 -116q-162 0 -262 123q28 35 63 64t53 39.5t28 14.5q58 -73 154 -73q95 0 176 67q82 68 102 161t-33 162q-53 68 -149 67t-181 -72q-9 2 -24 7t-47 23.5t-48 41.5l85 401h610q1 -30 -7.5 -72t-17.5 -69l-9 -26h-444l-20 -90q111 39 220.5 15
t174.5 -107q92 -118 57 -281q-35 -165 -176 -280z" />
    <glyph glyph-name="six" unicode="6" 
d="M608 427q-41 51 -113 51.5t-135 -51.5q-62 -50 -78 -124q-15 -73 25 -124t113 -51q75 0 140 55q59 49 73 120q15 73 -25 124zM653 65q-120 -98 -259 -98q-137 0 -216 99q-35 44 -46 113t-2 124q19 103 87 250t147 234q186 206 413 206q1 -97 -37 -168q-136 0 -258 -134
q-28 -31 -55 -69q93 30 183 8.5t144 -90.5q77 -99 48 -237q-29 -139 -149 -238z" />
    <glyph glyph-name="seven" unicode="7" 
d="M892 842l-174 -271h67q1 -31 -8 -74t-18 -71l-9 -27h-143l-262 -410q-89 -19 -187 2l261 408h-78q2 105 37 172h150l168 262h-426q3 107 38 172h617q1 -31 -7.5 -72t-17.5 -66z" />
    <glyph glyph-name="eight" unicode="8" 
d="M499 469q-69 0 -128.5 -50t-73.5 -119t25.5 -117.5t108.5 -48.5q70 1 129 50.5t73 118.5t-25.5 118t-108.5 48zM578 867q-49 0 -92 -36.5t-54 -86.5q-10 -50 19 -85t79 -35q50 1 92.5 37t53.5 86q10 50 -19 85.5t-79 34.5zM397 -33q-136 -1 -212 94t-49 231
q15 74 60 140.5t110 113.5q-58 77 -35 191q23 117 122.5 200t216.5 84q117 2 183.5 -80t42.5 -199q-22 -108 -113 -191q47 -45 66 -111.5t3 -141.5q-28 -136 -143.5 -233t-251.5 -98z" />
    <glyph glyph-name="nine" unicode="9" 
d="M699 781q-41 52 -113 52t-135 -52q-61 -49 -77 -124q-16 -74 24 -124q40 -51 113 -51t135 51q64 53 79 124q15 70 -26 124zM642 173q-186 -206 -413 -206q0 97 37 169q141 0 259 132q32 35 54 71q-92 -30 -182.5 -9t-144.5 90q-76 99 -46 237q30 142 152 242
q118 94 254 94q138 0 217 -99q35 -44 45.5 -112.5t1.5 -124.5q-19 -103 -87 -250t-147 -234z" />
    <glyph glyph-name="colon" unicode=":" horiz-adv-x="181" 
d="M126 -13h-142l3 13q4 50 10 78q7 37 28 85h138q-1 -52 -8 -85q-4 -17 -29 -91zM190 255h-142l3 12q1 37 9 78q9 37 28 85h138q2 -37 -8 -85q-6 -26 -28 -90z" />
    <glyph glyph-name="semicolon" unicode=";" horiz-adv-x="181" 
d="M64 -108h-96q26 65 38 132.5t12 102.5l-1 35h149q-4 -113 -102 -270zM190 255h-142l3 12q1 37 9 78q9 37 28 85h138q2 -37 -8 -85q-6 -26 -28 -90z" />
    <glyph glyph-name="equal" unicode="=" horiz-adv-x="557" 
d="M545 195h-517l3 12q0 30 6 63q7 29 25 70h514q1 -44 -5 -71q-4 -21 -26 -74zM590 406h-514q2 55 6 74q5 24 25 71h514q1 -38 -5 -71q-6 -26 -26 -74z" />
    <glyph glyph-name="question" unicode="?" horiz-adv-x="523" 
d="M197 -13h-141l3 13q2 40 10 78q8 41 27 85h138q1 -41 -8 -85q-4 -17 -29 -91zM547 484q-41 -35 -156 -101q-9 -5 -25 -13t-19 -10q-26 -15 -37 -25q-33 -30 -52 -117q-86 -17 -156 0q29 133 98 204q39 40 135 93q92 51 123 78t40 68q11 49 -16 83.5t-76 34.5t-91 -36
t-54 -92q-84 -19 -157 0q26 120 123.5 202t211.5 82q113 0 176.5 -80.5t38.5 -193.5q-21 -101 -107 -177z" />
    <glyph glyph-name="at" unicode="@" horiz-adv-x="957" 
d="M493 254q-49 0 -75 -20.5t-32 -49.5t11 -49t66 -20t75.5 20t32.5 49t-11.5 49.5t-66.5 20.5zM638 334v2h-25v-2h25zM605 359h10q0 35 -22.5 59t-64.5 24q-70 0 -94 -78q-54 -5 -129 0q26 94 92 146.5t156 52.5q103 0 157.5 -61t31.5 -170l-26 -120q-6 -23 -4 -34t5 -13.5
t11 -2.5q39 0 73 25.5t41 62.5q18 95 3.5 164.5t-57.5 114.5t-102 67t-129 22q-137 0 -236.5 -95t-134.5 -261q-32 -147 45 -245t233 -102q5 -69 -30 -142q-224 4 -329 144q-105 142 -62 345q48 225 197 361q150 136 347 136q103 0 187.5 -35.5t139.5 -100.5
q119 -142 70 -373q-21 -98 -100 -170t-174 -72q-33 0 -52.5 5.5t-37.5 24.5q-75 -51 -190 -51q-97 0 -148.5 53t-34.5 134q20 93 87 141q84 60 180 60q49 0 91 -16z" />
    <glyph glyph-name="A" unicode="A" horiz-adv-x="1023" 
d="M676 446l-47 253l-155 -253h202zM787 -14l-63 259h-384l-173 -259q-115 -20 -214 2l767 1142l281 -1143q-15 -2 -37.5 -4.5t-84.5 -5t-92 8.5z" />
    <glyph glyph-name="B" unicode="B" horiz-adv-x="861" 
d="M577 436h-300l-58 -269h300q56 0 104 39.5t60 94.5t-19 95t-87 40zM603 847h-242l-51 -241h242q50 0 93 35t54 85t-17.5 85.5t-78.5 35.5zM539 -13h-555l218 1026h489q116 0 181.5 -82.5t40.5 -198.5q-25 -117 -127 -199q63 -37 92 -105.5t12 -151.5
q-25 -119 -128.5 -204t-222.5 -85z" />
    <glyph glyph-name="C" unicode="C" horiz-adv-x="838" 
d="M445 -46q-99 0 -180.5 43t-130 117t-67.5 173t7 212q31 147 123 272.5t220 198.5t260 73q103 0 184.5 -45.5t134.5 -129.5q-8 -11 -22.5 -27.5t-56.5 -51.5t-81 -51q-70 115 -197 115q-123 0 -232 -102t-140 -247t35 -246.5t189 -101.5t240 108q40 -20 67 -54t34 -58
l6 -24q-185 -174 -393 -174z" />
    <glyph glyph-name="D" unicode="D" horiz-adv-x="830" 
d="M454 841h-91l-145 -681h89q153 0 258.5 89.5t136.5 233.5q18 93 8.5 161t-46 111.5t-89.5 64.5t-121 21zM277 -13h-293l218 1026h295q87 0 158.5 -19t129 -60t90.5 -105t42 -153.5t-17 -205.5q-22 -103 -71.5 -186.5t-112.5 -137.5t-139.5 -91t-151 -52.5t-148.5 -15.5z
" />
    <glyph glyph-name="E" unicode="E" horiz-adv-x="684" 
d="M687 -13h-703l218 1026h691q1 -38 -7.5 -79.5t-17.5 -63.5l-10 -23h-497l-51 -241h358q2 -40 -7.5 -82.5t-19.5 -65.5l-10 -22h-354l-58 -269h506q2 -38 -7.5 -83t-19.5 -71z" />
    <glyph glyph-name="F" unicode="F" horiz-adv-x="655" 
d="M853 842h-494l-51 -240h355q2 -39 -7.5 -81.5t-19.5 -64.5l-10 -23h-351l-94 -444q-106 -17 -196 1l216 1016h687q1 -37 -7.5 -78t-18.5 -64z" />
    <glyph glyph-name="G" unicode="G" horiz-adv-x="851" 
d="M446 -40q-131 0 -226 72t-132.5 196t-6.5 269q31 146 121.5 269.5t216 195.5t256.5 72q204 0 315 -171q-8 -11 -22.5 -27.5t-56.5 -51.5t-80 -51q-70 113 -194 113q-120 0 -227.5 -100t-138.5 -243t34 -243t186 -100q42 0 86.5 15t85.5 52t52 90l17 76h-215q1 91 35 167
h399q-10 -54 -19.5 -102.5t-16.5 -79t-12 -53.5t-8 -34.5t-3 -12.5q-28 -126 -164.5 -222t-281.5 -96z" />
    <glyph glyph-name="H" unicode="H" horiz-adv-x="795" 
d="M553 -10l93 438h-374l-93 -439q-104 -17 -194 1l213 1004q43 11 91 11t75 -5l26 -6l-84 -397h376l84 397q42 11 89.5 11t74.5 -5l26 -6l-213 -1005q-105 -17 -190 1z" />
    <glyph glyph-name="I" unicode="I" horiz-adv-x="232" 
d="M-15 -10l213 1004q44 11 92.5 11t75.5 -5l26 -6l-213 -1005q-104 -17 -194 1z" />
    <glyph glyph-name="J" unicode="J" horiz-adv-x="607" 
d="M454 -13q-197 0 -305.5 130.5t-65.5 333.5q64 13 111 13q41 0 93 -13q-10 -60 -9.5 -100t19.5 -69.5t44 -47t64 -32.5l170 799q56 12 95 12q49 0 100 -12l-214 -1006q-67 -8 -102 -8z" />
    <glyph glyph-name="K" unicode="K" horiz-adv-x="725" 
d="M483 -11l-217 413l-87 -413q-104 -16 -194 0l213 1005q44 11 92.5 11t75.5 -5l26 -6l-62 -295l360 298q114 15 245 -3l-529 -436l320 -568q-18 -2 -45.5 -4t-100 -4t-97.5 7z" />
    <glyph glyph-name="L" unicode="L" horiz-adv-x="554" 
d="M562 -13h-578l216 1014q42 11 89.5 11t74.5 -6l26 -5l-178 -835h388q2 -38 -7.5 -82.5t-20.5 -70.5z" />
    <glyph glyph-name="M" unicode="M" horiz-adv-x="1029" 
d="M791 -15l110 517l-430 -578l-183 578l-110 -517q-125 -22 -194 1l265 1155l309 -809l654 809l-228 -1156q-105 -22 -193 0z" />
    <glyph glyph-name="N" unicode="N" horiz-adv-x="859" 
d="M1031 1014l-261 -1090l-441 696l-134 -631q-123 -20 -201 1l246 1109h20l446 -653l118 568q48 9 100 9t80 -5z" />
    <glyph glyph-name="O" unicode="O" horiz-adv-x="956" 
d="M638 854q-115 0 -221 -105.5t-137 -250.5q-31 -146 30 -250.5t176 -104.5q116 0 222.5 105t137.5 250t-30.5 250.5t-177.5 105.5zM446 -49q-128 0 -220.5 73.5t-128.5 199.5t-4 274q31 147 120 273t213 200t252 74q129 0 221.5 -74t128 -200t4.5 -273q-32 -148 -121 -274
t-212.5 -199.5t-252.5 -73.5z" />
    <glyph glyph-name="P" unicode="P" horiz-adv-x="721" 
d="M541 816h-185l-62 -296h185q62 0 111.5 44t63.5 109q14 64 -17 103.5t-96 39.5zM452 340h-197l-74 -351q-106 -17 -196 1l216 1016h393q138 0 215 -97t48 -235q-29 -139 -148 -236.5t-257 -97.5z" />
    <glyph glyph-name="Q" unicode="Q" horiz-adv-x="896" 
d="M578 859q-115 0 -221 -105.5t-137 -250.5t30.5 -249.5t176.5 -104.5q116 0 221.5 104.5t136.5 249.5t-30.5 250.5t-176.5 105.5zM614 19q65 2 161 25l8 -163q-128 -31 -213 -31q-65 0 -168 24q-4 1 -56 12q-38 6 -61 6q-71 2 -193 -35l-18 161q48 14 82 23
q-85 73 -118.5 196t-3.5 266q32 148 120.5 273.5t212 199t251.5 73.5t220.5 -73.5t128.5 -199t4 -273.5q-33 -155 -130 -285t-227 -199z" />
    <glyph glyph-name="R" unicode="R" horiz-adv-x="742" 
d="M539 819h-182l-66 -309h182q65 0 117 46t66 114q15 67 -16 108t-101 41zM519 346l201 -356q-19 -2 -46 -4t-100 -4t-99 7l-184 351h-36l-74 -351q-106 -17 -196 1l216 1016h393q138 0 215 -97t48 -235q-25 -120 -121 -212t-217 -116z" />
    <glyph glyph-name="S" unicode="S" horiz-adv-x="787" 
d="M408 -55q-120 0 -226 45.5t-178 129.5q40 77 167 149q105 -121 281 -121q135 0 143 41q9 39 -63 107q-26 26 -89.5 77.5t-79.5 64.5q-54 46 -91 83t-73.5 85.5t-50 99.5t-2.5 102q14 64 56.5 113.5t100.5 77t117 41t115 13.5q120 0 224.5 -47t179.5 -134
q-71 -105 -169 -147q-108 125 -278 125q-134 0 -144 -47q-9 -39 62 -106q7 -7 169 -142q54 -45 91 -82.5t73.5 -86t50.5 -99t3 -101.5q-14 -64 -57 -113t-101 -75.5t-116.5 -39.5t-114.5 -13z" />
    <glyph glyph-name="T" unicode="T" horiz-adv-x="688" 
d="M913 822h-271l-177 -833q-106 -17 -195 1l177 832h-273q-3 101 40 184h737q3 -39 -6.5 -85t-20.5 -73z" />
    <glyph glyph-name="U" unicode="U" horiz-adv-x="824" 
d="M377 -55q-107 0 -187 53t-113.5 144t-10.5 198l142 666q50 11 91 11t67 -6l26 -6l-142 -665q-18 -87 30.5 -149t135.5 -62t163 62t94 149l142 665q43 12 88.5 12t70.5 -6l24 -6l-142 -665q-34 -163 -174.5 -279t-304.5 -116z" />
    <glyph glyph-name="V" unicode="V" horiz-adv-x="947" 
d="M1161 1005l-720 -1135l-237 1135q57 11 115 11.5t87 -4.5l30 -5l105 -669l393 669q56 10 106.5 9.5t85.5 -6.5z" />
    <glyph glyph-name="W" unicode="W" horiz-adv-x="1248" 
d="M1460 1007l-690 -1127l-83 524l-307 -524l-209 1127q51 10 102.5 10.5t77.5 -3.5l26 -5l109 -633l304 504l86 -504l381 633q51 9 96 8.5t76 -5.5z" />
    <glyph glyph-name="X" unicode="X" horiz-adv-x="789" 
d="M561 -11l-110 336l-253 -336q-48 -8 -96 -7.5t-84 4.5l-36 4l406 502l-192 500q46 12 99.5 12.5t84.5 -4.5l31 -5l111 -336l252 336q122 23 215 -3l-403 -500l191 -502q-5 -1 -14.5 -2t-37 -3t-52.5 -3t-56.5 0.5t-55.5 6.5z" />
    <glyph glyph-name="Y" unicode="Y" horiz-adv-x="871" 
d="M1086 1002l-500 -702l-66 -311q-125 -17 -189 1l66 310l-202 702q46 12 100 12.5t85 -4.5l31 -5l126 -493l335 493q123 23 214 -3z" />
    <glyph glyph-name="Z" unicode="Z" horiz-adv-x="771" 
d="M935 841l-650 -660h491q4 -37 -6 -85.5t-22 -78.5l-12 -30h-739q-4 96 35 169l658 667h-503q2 7 0 31t9 73.5t32 85.5h742q-6 -104 -35 -172z" />
    <glyph glyph-name="bracketleft" unicode="[" horiz-adv-x="361" 
d="M351 -183h-403l289 1361h402q3 -29 -4 -64t-15 -56l-9 -20h-237l-230 -1081h237q1 -28 -6.5 -63t-15.5 -56z" />
    <glyph glyph-name="backslash" unicode="\" horiz-adv-x="432" 
d="M236 -11l-39 1008q106 16 169 0l39 -1005q-32 -10 -74 -10.5t-69 3.5z" />
    <glyph glyph-name="bracketright" unicode="]" horiz-adv-x="270" 
d="M181 -183h-403q0 78 30 140h238l230 1081h-238q-3 75 30 140h402z" />
    <glyph glyph-name="underscore" unicode="_" horiz-adv-x="572" 
d="M502 -13h-518l3 13q4 50 10 78q7 37 28 85h514q-1 -52 -8 -85q-4 -17 -29 -91z" />
    <glyph glyph-name="a" unicode="a" horiz-adv-x="696" 
d="M344 296q-65 0 -100 -27.5t-43 -66.5q-9 -39 14.5 -66.5t88.5 -27.5t100 27.5t44 66.5q8 39 -15.5 66.5t-88.5 27.5zM506 417q3 51 -26.5 87t-89.5 36q-101 0 -122 -99q-32 -6 -72 -6t-64 3l-24 2q23 113 108.5 181.5t204.5 68.5q132 0 201.5 -78t39.5 -218l-34 -157
q-10 -49 0 -59t55 -10q8 -93 -41 -181h-48q-56 0 -84 30q-89 -67 -247 -67q-125 0 -191.5 68t-44.5 171q26 116 112 178q108 78 231 78q73 0 136 -28z" />
    <glyph glyph-name="b" unicode="b" horiz-adv-x="712" 
d="M462 489q-59 0 -109 -46t-70 -121q-1 -2 -1 -6v-7q0 -2 -1 -4t-2 -4.5t-1 -3.5q-13 -76 17.5 -123t89.5 -47q62 0 113.5 50.5t68.5 131.5t-13 130.5t-92 49.5zM359 -49q-118 0 -188 91q-41 -45 -92 -53q-13 -2 -38 -2h-50q-4 88 37 174q38 0 50.5 9.5t21.5 50.5l137 646
q90 19 163 0l-54 -256q81 46 163 46q129 0 198.5 -104t38.5 -249t-144.5 -249t-242.5 -104z" />
    <glyph glyph-name="c" unicode="c" horiz-adv-x="564" 
d="M294 -53q-133 0 -204.5 107.5t-39.5 256.5q32 150 148.5 257t249.5 107q71 0 128 -35t91 -97q-20 -27 -54 -55.5t-59 -43.5l-24 -15q-34 73 -106 73q-65 0 -117 -51t-70 -134q-18 -84 13 -137t94 -53q69 0 133 70q8 -6 20.5 -17t37.5 -41.5t34 -58.5q-130 -133 -275 -133
z" />
    <glyph glyph-name="d" unicode="d" horiz-adv-x="677" 
d="M520 322q13 75 -17 121t-89 46q-63 0 -113 -49.5t-67 -130.5t12.5 -131.5t90.5 -50.5q58 0 108 47t70 123q0 1 1 3.5t2 4.5t1 4q1 5 1 13zM620 -13q-25 0 -36 2q-45 8 -69 53q-109 -91 -227 -91q-84 0 -146 48t-86 129t-4 176q31 145 144 249t242 104q82 0 144 -46
l54 256q36 8 77 8t64 -4l23 -4l-137 -646q-9 -42 -1 -51t46 -9q2 -38 -7.5 -81.5t-19.5 -67.5l-10 -25h-51z" />
    <glyph glyph-name="e" unicode="e" horiz-adv-x="651" 
d="M422 492q-51 0 -97.5 -35t-63.5 -93h266q9 61 -22 94.5t-83 33.5zM680 242h-445q-3 -53 47.5 -83t103.5 -30q29 0 45 2l51 7q-4 -68 -36 -173l-33 -2q-10 0 -33 -3t-34 -3q-165 0 -239 79q-91 99 -56 267q30 140 149 245q121 107 255 107q64 0 118.5 -28t89.5 -79
q36 -49 39.5 -134.5t-22.5 -171.5z" />
    <glyph glyph-name="f" unicode="f" horiz-adv-x="398" 
d="M469 492h-111l-107 -503q-37 -5 -80 -5t-68 2l-25 3l107 503h-83q-2 83 32 146h83q32 113 120.5 182t212.5 69q2 -40 -8 -80t-21 -59l-11 -20q-98 0 -121 -92h111q0 -32 -7.5 -68.5t-15.5 -57.5z" />
    <glyph glyph-name="g" unicode="g" horiz-adv-x="656" 
d="M411 491q-62 0 -111.5 -49t-65.5 -129q-18 -80 11.5 -130.5t89.5 -50.5q61 0 112 50t69 131q16 80 -13.5 129t-91.5 49zM265 -337q-57 0 -117 38t-100 89q57 65 148 133q25 -40 56.5 -63.5t60.5 -23.5q102 0 136 153l3 16q-83 -48 -165 -48q-128 0 -196.5 103.5
t-38.5 247.5q31 144 143.5 247.5t240.5 103.5q81 0 145 -48l7 32q90 19 163 0l-139 -654q-30 -140 -127.5 -233t-219.5 -93z" />
    <glyph glyph-name="h" unicode="h" horiz-adv-x="639" 
d="M419 -10l63 317q16 79 -5 131t-79 52q-60 0 -111.5 -48t-66.5 -123l-70 -330q-96 -15 -165 1l186 876q91 19 165 0l-54 -254q83 47 163 47q133 0 195 -91.5t26 -260.5l-67 -317q-106 -18 -180 0z" />
    <glyph glyph-name="i" unicode="i" horiz-adv-x="264" 
d="M124 -23q-32 0 -87 13l106 500h-49q-1 38 5 71q7 31 26 72h224l-137 -642q-50 -14 -88 -14zM282 722q-30 0 -88 8l30 142h12q47 7 80 7q46 0 83 -10l-30 -138q-46 -9 -87 -9z" />
    <glyph glyph-name="j" unicode="j" horiz-adv-x="268" 
d="M-139 -346q-115 0 -189 97q42 52 73 80.5t74 51.5q34 -55 90 -55q102 0 135 153l109 515h-58q2 49 8 80q5 21 23 64h228l-140 -659q-27 -129 -126 -228t-227 -99zM288 719q-6 0 -13 0.5t-16.5 1.5t-14.5 1l-18 3h-27l31 145h12q47 7 79 7q48 0 87 -10l-29 -139
q-49 -9 -91 -9z" />
    <glyph glyph-name="k" unicode="k" horiz-adv-x="527" 
d="M358 -11l-141 310l-66 -309q-106 -19 -166 1l188 886q32 7 73.5 7.5t67.5 -2.5l26 -4l-77 -360l159 132q107 14 231 -3l-286 -235l218 -422q-17 -2 -42.5 -3.5t-93 -3.5t-91.5 6z" />
    <glyph glyph-name="l" unicode="l" horiz-adv-x="250" 
d="M122 -20q-59 0 -89 11l157 740h-43q-6 28 6 77q7 37 25 68h217l-188 -886q-57 -10 -85 -10z" />
    <glyph glyph-name="m" unicode="m" horiz-adv-x="1101" 
d="M948 -20q-36 0 -82 10l70 332q16 73 -11.5 120.5t-95.5 47.5q-61 0 -107.5 -50.5t-60.5 -117.5l-70 -332q-57 -10 -97 -10q-36 0 -79 10l70 332q17 74 -3 121t-85 47q-64 0 -112.5 -47t-62.5 -115l-72 -338q-57 -10 -95 -10q-39 0 -70 11l138 650q32 10 66 10q32 0 83 -8
l3 -36q82 51 169 51q122 0 187 -117q117 117 245 117q132 0 200.5 -102t39.5 -234l-70 -332q-57 -10 -98 -10z" />
    <glyph glyph-name="n" unicode="n" horiz-adv-x="644" 
d="M413 -10l70 331q17 80 -7 123t-83 43q-60 0 -108.5 -44.5t-63.5 -115.5l-72 -337q-106 -19 -164 1l138 647q26 8 64 8.5t63 -2.5l24 -4l1 -34q81 49 164 49q137 0 203 -128q44 -86 17 -206l-70 -331q-102 -19 -176 0z" />
    <glyph glyph-name="o" unicode="o" horiz-adv-x="692" 
d="M419 492q-68 1 -119 -54t-67 -132q-17 -78 10 -132t97 -54q69 0 118.5 54t66.5 132q16 76 -11.5 131t-94.5 55zM304 -45q-136 0 -210 104t-42 251q31 147 149 251t254 104t209.5 -104t42.5 -251q-32 -147 -149.5 -251t-253.5 -104z" />
    <glyph glyph-name="p" unicode="p" horiz-adv-x="645" 
d="M397 495q-66 0 -115 -53t-64 -126t10.5 -127.5t91.5 -54.5t116 54.5t65 127.5q16 73 -10.5 126t-93.5 53zM294 -41q-80 0 -142 46q-14 -66 -22 -98q-17 -71 -43 -117q-67 -124 -229 -124q0 60 9 97q8 38 29 77q40 -1 50.5 9t19.5 50l159 748q51 10 89 10q31 0 75 -10
l-7 -31q81 46 162 46q90 0 151.5 -52.5t82 -132.5t2.5 -167q-29 -135 -140 -243t-246 -108z" />
    <glyph glyph-name="q" unicode="q" horiz-adv-x="656" 
d="M412 495q-66 0 -115 -53t-64 -126t10.5 -127.5t91.5 -54.5t116 54.5t65 127.5q16 73 -10.5 126t-93.5 53zM599 -334q-161 0 -177 124q-5 46 7 117q6 32 20 98q-81 -46 -162 -46q-90 0 -151.5 52.5t-81.5 132.5t-2 166q29 136 139.5 244t245.5 108q80 0 143 -46l7 31
q46 10 78 10q36 0 85 -10l-159 -748q-10 -37 -3 -48.5t47 -10.5q4 -44 -3 -77q-10 -40 -33 -97z" />
    <glyph glyph-name="r" unicode="r" horiz-adv-x="431" 
d="M531 535q-1 -3 -2.5 -6.5t-5.5 -11.5t-8 -17q-89 11 -152.5 -39t-82.5 -138l-71 -332q-47 -14 -91 -14q-1 0 -37 3l-42 10l107 505h-51q0 48 6 73q5 28 25 74h194l5 -45q85 49 172 49q12 0 49 -5q-1 -49 -8 -80q-1 -4 -7 -26z" />
    <glyph glyph-name="s" unicode="s" horiz-adv-x="599" 
d="M542 443q-37 43 -108 62.5t-133 5.5q-44 -11 -56 -31q-5 -10 -5 -12q6 -15 39.5 -35t95.5 -35q180 -46 217 -146q24 -67 -15 -146q-54 -104 -186 -137q-49 -13 -96 -13q-86 0 -165 31.5t-128 88.5q5 9 14 23.5t44 46.5t77 50q38 -45 111.5 -65.5t135.5 -5.5q36 9 48 30
q5 9 3 17q-6 16 -38.5 35t-92.5 33l-2 1q-188 45 -221 151q-20 69 24 144q59 102 192 132q103 23 210.5 -6.5t170.5 -99.5q-7 -10 -19.5 -25t-48.5 -47.5t-68 -46.5z" />
    <glyph glyph-name="t" unicode="t" horiz-adv-x="425" 
d="M104 -10l104 494h-116q0 29 4 51q0 7 1 9q0 6 1 11q4 20 10 40q4 11 12 31l-2 -3q7 6 37.5 9.5t57.5 3.5l27 1l40 185l190 70l-55 -255h114l-2 -12q0 -20 -2 -30q-2 -20 -6 -40q0 -2 -1.5 -5.5t-1.5 -5.5q0 -1 -1 -4t-2 -5q-1 -5 -7 -21q-3 -13 -13 -30h-110l-105 -494
q-95 -22 -174 0z" />
    <glyph glyph-name="u" unicode="u" horiz-adv-x="634" 
d="M433 -11l2 33q-83 -48 -165 -48q-147 0 -210 122q-38 76 -9 213l70 331q102 19 178 0l-71 -331q-36 -166 90 -166q60 0 109 44t64 116l72 337q105 19 163 -1l-138 -649q-28 -7 -67 -7.5t-63 3.5z" />
    <glyph glyph-name="v" unicode="v" horiz-adv-x="613" 
d="M778 640l-376 -651q-55 -11 -105 -11q-13 0 -57 7t-45 11q-1 7 -26.5 174.5t-47 316.5t-19.5 157h13q43 6 87 6q46 0 93 -8l47 -455l240 457h9q43 6 87 6q54 0 100 -10z" />
    <glyph glyph-name="w" unicode="w" horiz-adv-x="1079" 
d="M1244 640l-376 -651q-109 -21 -205 0l-43 357l-196 -357q-111 -21 -205 0l-100 655h18q94 17 172 -1l-2 1q5 -4 19 -116.5t26 -223.5l12 -110l210 399l29 49q44 8 83 8q31 0 68 -7l-2 1q5 -4 9 -17t6 -23l2 -11l40 -399l238 448q100 21 197 -2z" />
    <glyph glyph-name="x" unicode="x" horiz-adv-x="636" 
d="M740 640l-270 -316l145 -333q-5 -1 -15 -2.5t-37 -4.5t-51.5 -4.5t-53.5 1t-49 8.5l-76 176l-150 -176q-44 -10 -89.5 -9.5t-81.5 6.5l-35 5l290 337q-15 29 -50 107t-63 141l-27 64q49 12 100.5 12.5t78.5 -4.5l27 -5l68 -158l136 158q105 23 203 -3z" />
    <glyph glyph-name="y" unicode="y" horiz-adv-x="678" 
d="M411 -5l-209 -340q-110 -14 -187 2l218 353l-126 632q38 8 88 8.5t81 -2.5l31 -4l65 -414l225 414q70 15 183 2q4 -8 -88 -170.5t-186 -321.5z" />
    <glyph glyph-name="z" unicode="z" horiz-adv-x="586" 
d="M657 496l-388 -343h294q3 -32 -6 -73.5t-19 -67.5l-10 -25h-533q-3 83 30 144l388 349h-291q-5 93 36 163h531q-5 -89 -32 -147z" />
    <glyph glyph-name="braceleft" unicode="{" horiz-adv-x="331" 
d="M52 128q25 115 24.5 170t-18.5 69.5t-64 14.5l15 12q-21 -2 -17 50q4 49 28 106q39 0 60.5 6.5t43 32.5t37.5 76t35 138q29 134 144.5 228.5t254.5 94.5q1 -33 -7.5 -74.5t-17.5 -67.5l-9 -25q-71 0 -127.5 -45.5t-70.5 -110.5q-14 -64 -23.5 -101t-27.5 -85.5t-41 -84.5
t-54 -67q20 -34 26 -66q6 -28 6.5 -59t-4.5 -68.5t-10.5 -67.5t-15.5 -76q-14 -65 23 -110.5t107 -45.5q5 -28 -3.5 -69.5t-19.5 -69.5l-11 -28q-140 0 -216 94.5t-47 228.5z" />
    <glyph glyph-name="bar" unicode="|" horiz-adv-x="206" 
d="M-48 -163l254 1193q38 9 80 9t66 -5l23 -4l-254 -1194q-91 -14 -169 1z" />
    <glyph glyph-name="braceright" unicode="}" horiz-adv-x="476" 
d="M349 128q-29 -134 -144.5 -228.5t-255.5 -94.5q-1 104 36 167q70 0 126.5 45.5t70.5 110.5q14 64 23.5 101t27 85.5t40.5 84.5q26 41 54 66q-19 33 -26 67q-9 27 -5 81.5t10.5 91t19.5 98.5q14 65 -24 110.5t-109 45.5q5 93 36 167q140 0 216.5 -94.5t47.5 -228.5
q-25 -116 -24.5 -170t20.5 -68.5t72 -14.5q-1 -37 -9.5 -79t-17.5 -65l-8 -24q-52 0 -78.5 -15t-50 -68.5t-48.5 -170.5z" />
    <glyph glyph-name="asciitilde" unicode="~" horiz-adv-x="637" 
d="M704 859l6 -3l3 12q16 -17 24.5 -49t8.5 -55v-24q-47 -21 -70 -29q-66 -24 -136 -24q-68 0 -122 25q-39 18 -90 18t-84.5 -8.5t-43.5 -16.5q-3 8 -6 22t-8 56.5t2 73.5q66 19 115 23q117 12 197 -25q65 -31 185 10q3 1 8 3t6 2q4 2 7 2q8 0 -2 -13z" />
    <glyph glyph-name="dieresis" unicode="&#xa8;" horiz-adv-x="441" 
d="M279 708h-142l3 12q4 50 10 78q7 37 28 85h138q-2 -52 -8 -85q-4 -19 -29 -90zM521 708h-141l3 12q2 40 10 78q8 41 27 85h138q1 -41 -8 -85q-4 -19 -29 -90z" />
    <glyph glyph-name="acute" unicode="&#xb4;" horiz-adv-x="552" 
d="M473 717q-4 0 -10.5 1t-24.5 15.5t-33 41.5q59 48 110 106.5t73 92.5l21 35l108 -90q-40 -58 -124 -130t-120 -72z" />
    <glyph glyph-name="Aacute" unicode="&#xc1;" horiz-adv-x="1023" 
d="M676 446l-47 253l-155 -253h202zM787 -14l-63 259h-384l-173 -259q-115 -20 -214 2l767 1142l281 -1143q-15 -2 -37.5 -4.5t-84.5 -5t-92 8.5zM720 1130q-4 0 -10.5 1t-24 15.5t-31.5 41.5q58 48 108.5 106.5t71.5 93.5l22 34l109 -90q-39 -58 -124 -130t-121 -72z" />
    <glyph glyph-name="Eacute" unicode="&#xc9;" horiz-adv-x="684" 
d="M687 -13h-703l218 1026h691q1 -38 -7.5 -79.5t-17.5 -63.5l-10 -23h-497l-51 -241h358q2 -40 -7.5 -82.5t-19.5 -65.5l-10 -22h-354l-58 -269h506q2 -38 -7.5 -83t-19.5 -71zM510 1077q-4 0 -11 1t-25 15.5t-33 41.5q59 48 110.5 106.5t72.5 92.5l22 35l108 -90
q-40 -58 -124 -130t-120 -72z" />
    <glyph glyph-name="Iacute" unicode="&#xcd;" horiz-adv-x="236" 
d="M-15 -10l213 1004q44 11 92.5 11t75.5 -5l26 -6l-213 -1005q-104 -17 -194 1zM296 1077q-4 0 -11 1t-24.5 15.5t-31.5 41.5q58 48 109 106.5t72 92.5l22 35l109 -90q-40 -58 -124.5 -130t-120.5 -72z" />
    <glyph glyph-name="Ntilde" unicode="&#xd1;" horiz-adv-x="859" 
d="M1031 1014l-261 -1090l-441 696l-134 -631q-123 -20 -201 1l246 1109h20l446 -653l118 568q48 9 100 9t80 -5zM874 1261q14 -18 21 -48.5t7 -52.5l1 -21q-12 -8 -36.5 -19t-74.5 -23.5t-96 -12.5q-68 0 -121 25q-75 34 -189 7l-15 -3l-5 -2q-3 -1 -3.5 2t0.5 7l1 3
l-13 -6q-2 7 -4 18.5t-5.5 48.5t3.5 70q59 18 114 23q118 12 197 -25q68 -32 185 10q4 1 9 3l5 2q6 2 8 2q8 0 11 -8z" />
    <glyph glyph-name="Oacute" unicode="&#xd3;" horiz-adv-x="956" 
d="M638 854q-115 0 -221 -105.5t-137 -250.5q-31 -146 30 -250.5t176 -104.5q116 0 222.5 105t137.5 250t-30.5 250.5t-177.5 105.5zM446 -49q-128 0 -220.5 73.5t-128.5 199.5t-4 274q31 147 120 273t213 200t252 74q129 0 221.5 -74t128 -200t4.5 -273q-32 -148 -121 -274
t-212.5 -199.5t-252.5 -73.5zM628 1077q-4 0 -11 1t-24.5 15.5t-31.5 41.5q58 48 109 106.5t72 92.5l22 35l109 -90q-40 -58 -124.5 -130t-120.5 -72z" />
    <glyph glyph-name="Uacute" unicode="&#xda;" horiz-adv-x="824" 
d="M377 -55q-107 0 -187 53t-113.5 144t-10.5 198l142 666q50 11 91 11t67 -6l26 -6l-142 -665q-18 -87 30.5 -149t135.5 -62t163 62t94 149l142 665q43 12 88.5 12t70.5 -6l24 -6l-142 -665q-34 -163 -174.5 -279t-304.5 -116zM584 1077q-4 0 -11 1t-24.5 15.5t-31.5 41.5
q58 48 109 106.5t72 92.5l22 35l109 -90q-40 -58 -124.5 -130t-120.5 -72z" />
    <glyph glyph-name="aacute" unicode="&#xe1;" horiz-adv-x="644" 
d="M328 281q-62 0 -95 -26t-41 -63t14 -62.5t84 -25.5q61 0 94.5 25.5t41.5 62.5t-14.5 63t-83.5 26zM481 398q2 49 -25.5 82t-84.5 33q-95 0 -115 -93q-30 -6 -69 -6t-63 2l-23 3q23 108 104.5 173t195.5 65q127 0 192.5 -74.5t37.5 -207.5l-32 -149q-10 -47 -0.5 -56.5
t52.5 -9.5q6 -83 -39 -173h-46q-55 0 -81 28q-85 -63 -234 -63q-119 0 -182.5 65t-43.5 163q24 110 106 170q102 74 221 74q68 0 129 -26zM418 708q-4 0 -10.5 1t-24 15.5t-31.5 41.5q58 48 109 106.5t73 93.5l21 34l108 -90q-39 -58 -124 -130t-121 -72z" />
    <glyph glyph-name="eacute" unicode="&#xe9;" horiz-adv-x="634" 
d="M416 492q-50 0 -95.5 -34t-62.5 -91h261q8 59 -22.5 92t-80.5 33zM670 247h-427q-4 -50 41.5 -75t98.5 -25q29 0 45 2l50 6q-3 -40 -13 -87t-19 -74l-8 -27l-33 -4q-37 -5 -66 -5q-151 0 -232 87q-90 98 -55 262q30 138 147 241q121 105 249 105q130 0 204 -106
q34 -48 38.5 -131.5t-20.5 -168.5zM458 708q-4 0 -10.5 1t-24 15.5t-31.5 41.5q58 48 109 106.5t73 93.5l21 34l108 -90q-39 -58 -124 -130t-121 -72z" />
    <glyph glyph-name="iacute" unicode="&#xed;" horiz-adv-x="268" 
d="M124 -23q-32 0 -87 13l106 500h-49q-1 38 5 71q7 31 26 72h224l-137 -642q-50 -14 -88 -14zM215 708q-4 0 -10.5 1t-24 15.5t-31.5 41.5q58 48 109 106.5t72 93.5l22 34l108 -90q-39 -58 -124 -130t-121 -72z" />
    <glyph glyph-name="ntilde" unicode="&#xf1;" horiz-adv-x="641" 
d="M413 -10l70 331q17 80 -7 123t-83 43q-60 0 -108.5 -44.5t-63.5 -115.5l-72 -337q-106 -19 -164 1l138 647q26 8 64 8.5t63 -2.5l24 -4l1 -34q81 49 164 49q137 0 203 -128q44 -86 17 -206l-70 -331q-102 -19 -176 0zM704 859l6 -3l3 12q16 -17 24.5 -49t8.5 -55v-24
q-47 -21 -70 -29q-66 -24 -136 -24q-68 0 -122 25q-39 18 -90 18t-84.5 -8.5t-43.5 -16.5q-3 8 -6 22t-8 56.5t2 73.5q66 19 115 23q117 12 197 -25q65 -31 185 10q3 1 8 3t6 2q4 2 7 2q8 0 -2 -13z" />
    <glyph glyph-name="oacute" unicode="&#xf3;" horiz-adv-x="693" 
d="M432 508q-67 0 -129.5 -61t-78.5 -138q-17 -77 20 -137.5t104 -60.5t129 60.5t79 137.5q16 77 -20.5 138t-103.5 61zM311 -56q-140 0 -215.5 107.5t-43.5 257.5q32 151 153 258.5t261 107.5q141 0 217 -107.5t44 -258.5t-154 -258t-262 -107zM474 708q-4 0 -10.5 1
t-24 15.5t-31.5 41.5q58 48 109 106.5t73 93.5l21 34l108 -90q-39 -58 -124 -130t-121 -72z" />
    <glyph glyph-name="uacute" unicode="&#xfa;" horiz-adv-x="635" 
d="M433 -11l2 33q-83 -48 -165 -48q-147 0 -210 122q-38 76 -9 213l70 331q102 19 178 0l-71 -331q-36 -166 90 -166q60 0 109 44t64 116l72 337q105 19 163 -1l-138 -649q-28 -7 -67 -7.5t-63 3.5zM444 708q-4 0 -10.5 1t-24 15.5t-31.5 41.5q58 48 109 106.5t73 93.5
l21 34l108 -90q-39 -58 -124 -130t-121 -72z" />
    <glyph glyph-name="udieresis" unicode="&#xfc;" horiz-adv-x="632" 
d="M433 -11l2 33q-83 -48 -165 -48q-147 0 -210 122q-38 76 -9 213l70 331q102 19 178 0l-71 -331q-36 -166 90 -166q60 0 109 44t64 116l72 337q105 19 163 -1l-138 -649q-28 -7 -67 -7.5t-63 3.5zM391 708h-141l3 12q2 40 10 78q11 52 27 85h138q-2 -52 -8 -85
q-4 -19 -29 -90zM633 708h-141l3 12q2 40 10 78q8 41 27 85h138q-2 -52 -8 -85q-4 -19 -29 -90z" />
    <glyph glyph-name="quotedblleft" unicode="&#x201c;" horiz-adv-x="305" 
d="M293 708h-149q6 112 103 269h96q-26 -65 -38.5 -132.5t-12.5 -102.5zM472 708h-149q6 112 103 269h96q-26 -65 -38.5 -132.5t-11.5 -102.5v-34z" />
    <glyph glyph-name="quotedblright" unicode="&#x201d;" horiz-adv-x="467" 
d="M237 708h-96q26 65 38.5 132t12.5 102l-1 35h149q-6 -116 -103 -269zM416 708h-96q26 65 38.5 132t11.5 102v35h149q-6 -116 -103 -269z" />
    <glyph glyph-name="quotedblbase" unicode="&#x201e;" horiz-adv-x="467" 
 />
    <glyph glyph-name="ellipsis" unicode="&#x2026;" horiz-adv-x="584" 
d="M126 -13h-142l3 13q4 50 10 78q7 37 28 85h138q-1 -52 -8 -85q-4 -17 -29 -91zM358 -13h-141l3 13q2 40 10 78q8 41 27 85h138q-1 -52 -8 -85q-4 -17 -29 -91zM592 -13h-141l3 13q2 40 10 78q8 41 27 85h138q-1 -52 -8 -85q-4 -17 -29 -91z" />
    <glyph glyph-name="minus" unicode="&#x2212;" horiz-adv-x="568" 
d="M550 215h-517l2 12q2 41 7 63q6 29 25 70h514q0 -46 -6 -71q-3 -18 -25 -74z" />
    <glyph glyph-name="fi" unicode="&#xfb01;" horiz-adv-x="606" 
d="M510 730q-55 0 -90 -31t-46 -84l-133 -626q-84 -12 -163 0l107 503h-83q-2 83 32 146h83q32 113 120.5 182t212.5 69q2 -40 -8 -80t-21 -59zM472 -23q-32 0 -87 13l106 500h-170l31 143h345l-137 -642q-50 -14 -88 -14zM630 722q-30 0 -88 8l30 142h12q47 7 80 7
q46 0 83 -10l-30 -138q-46 -9 -87 -9z" />
    </font>
</defs>
</svg>
