<?xml version="1.0" standalone="no"?>
<!DOCTYPE svg PUBLIC "-//W3C//DTD SVG 1.1//EN" "http://www.w3.org/Graphics/SVG/1.1/DTD/svg11.dtd" >
<svg xmlns="http://www.w3.org/2000/svg" xmlns:xlink="http://www.w3.org/1999/xlink" version="1.1">
<metadata>
Created by FontForge 20150318 at Tue Jul 28 13:33:06 2015
 By uniteet7
Copyright (c) 2012 by Arnold Hoepker. All rights reserved.
</metadata>
<defs>
<font id="zaguaticaBold" horiz-adv-x="802" >
  <font-face 
    font-family="zaguaticaBold"
    font-weight="700"
    font-stretch="normal"
    units-per-em="1000"
    panose-1="0 0 0 0 0 0 0 0 0 0"
    ascent="720"
    descent="-280"
    x-height="630"
    cap-height="993"
    bbox="-259 -342 1229 1402"
    underline-thickness="50"
    underline-position="-50"
    unicode-range="U+0020-FB01"
  />
<missing-glyph horiz-adv-x="322" 
 />
    <glyph glyph-name=".notdef" horiz-adv-x="322" 
 />
    <glyph glyph-name=".null" horiz-adv-x="0" 
 />
    <glyph glyph-name="nonmarkingreturn" horiz-adv-x="333" 
 />
    <glyph glyph-name="space" unicode=" " horiz-adv-x="322" 
 />
    <glyph glyph-name="exclam" unicode="!" horiz-adv-x="200" 
d="M66 221q-35 0 -64 7l-2 677q24 7 65 7q29 0 69 -7l2 -677h-1q-40 -7 -69 -7zM3 78q0 38 7 72h118q7 -28 7 -72q0 -32 -7 -78h-118v1q-7 45 -7 77z" />
    <glyph glyph-name="quotedbl" unicode="&#x22;" horiz-adv-x="407" 
d="M127 740v-1h-103q-3 22 -10 61.5t-10.5 63.5t-6.5 63.5t3 61.5h150q6 -22 3.5 -61t-6.5 -63.5t-10.5 -63.5t-9.5 -61zM312 740v-1h-103q-3 22 -10 61.5t-10.5 63.5t-6.5 63.5t3 61.5h150q6 -21 3.5 -61t-6 -63.5t-10.5 -63.5t-10 -61z" />
    <glyph glyph-name="numbersign" unicode="#" horiz-adv-x="1150" 
d="M1105 596h-257l-52 -207l257 -1q-9 -87 -36 -140l-256 1l-63 -249q-91 -17 -144 0l62 249h-214l-62 -249q-91 -17 -144 0l62 249h-258q-1 25 7.5 60t18.5 57l9 23h258l52 207h-257q-2 25 7 60t19 58l9 22h258l63 251q25 6 61 6t59 -3l24 -3l-63 -251h214l63 251
q25 6 61 6t59 -3l24 -3l-63 -251h257q-8 -88 -35 -140zM438 389h213l52 207h-213z" />
    <glyph glyph-name="dollar" unicode="$" horiz-adv-x="619" 
d="M579 285q7 -50 -17.5 -93.5t-74.5 -69.5q-66 -34 -155 -34q-9 0 -13 1l-6 -79q-73 -17 -117 0l7 96q-117 33 -199 110q7 22 30.5 47t43.5 39l19 13q48 -47 116 -70l16 216q-51 36 -82.5 60.5t-66.5 58t-54 67.5t-24 70q-7 52 17.5 96t76.5 71q71 36 165 33l6 80
q20 6 49.5 6t48.5 -3l19 -3l-7 -98q112 -32 199 -113q-4 -8 -11 -20t-31 -39t-51 -40q-51 48 -116 72l-16 -218q52 -37 82.5 -61t66 -58t55 -67.5t24.5 -69.5zM240 621l12 160q-58 2 -94 -18q-25 -12 -22 -27q3 -26 54 -74q24 -21 50 -41zM424 242q23 12 20 24q-3 26 -54 73
q-20 19 -50 42l-12 -157q59 -2 96 18z" />
    <glyph glyph-name="percent" unicode="%" horiz-adv-x="1148" 
d="M517 0q-91 -17 -145 0l248 986q25 6 61 6t59 -3l24 -3zM246 473q100 0 171.5 71.5t71.5 171.5t-71.5 171.5t-171.5 71.5t-171.5 -71.5t-71.5 -171.5t71.5 -171.5t171.5 -71.5zM246 821q44 0 74.5 -30.5t30.5 -74.5t-31 -75t-74 -31q-44 0 -75 31t-31 75t31 74.5t75 30.5z
M893 0q101 0 172 71t71 172t-71 172t-172 71t-172 -71t-71 -172t71 -172t172 -71zM893 348q43 0 74 -31t31 -74t-31 -74t-74 -31t-74 31t-31 74t31 74t74 31z" />
    <glyph glyph-name="ampersand" unicode="&#x26;" horiz-adv-x="623" 
d="M375 986q-11 0 -26 -5q-40 -18 -55 -72t12 -118q64 18 95 52q34 40 26 94q-6 31 -27 43q-12 6 -25 6zM190 131l-1 234q-59 -20 -69 -93q-4 -36 15 -75t55 -66zM73 730q36 0 96 4q-37 101 -10 198q36 127 141 169q91 38 171 -8q78 -45 94 -141q9 -57 -8 -117.5t-54 -101.5
q-54 -58 -140 -89q31 -39 65 -70q84 -81 121 -182t18 -198q-23 -114 -119 -179q-70 -48 -156 -48q-25 0 -55 5q-109 22 -179 110q-68 89 -57 188q11 90 77.5 149.5t178.5 50.5q26 -2 40.5 -6.5t16.5 -7.5l1 -4q-10 -135 0 -358q36 7 63 25q54 36 66 99q13 66 -14.5 136.5
t-88.5 128.5q-66 64 -111 131q-71 -9 -157 -9q-20 69 0 125z" />
    <glyph glyph-name="quotesingle" unicode="'" horiz-adv-x="222" 
d="M127 740v-1h-103q-3 22 -10 61.5t-10.5 63.5t-6.5 63.5t3 61.5h150q6 -22 3.5 -61t-6.5 -63.5t-10.5 -63.5t-9.5 -61z" />
    <glyph glyph-name="parenleft" unicode="(" horiz-adv-x="374" 
d="M330 0q-33 -58 -92 -92q-115 115 -176.5 263.5t-61.5 311.5t61.5 311t176.5 264q28 -11 51 -34t32 -40l9 -18q-186 -186 -186 -483t186 -483z" />
    <glyph glyph-name="parenright" unicode=")" horiz-adv-x="378" 
d="M0 0q187 187 187 483t-187 483q3 8 9.5 19.5t30.5 36.5t52 36q115 -115 176.5 -263.5t61.5 -311.5t-61.5 -312t-176.5 -263q-26 15 -49 38t-33 38z" />
    <glyph glyph-name="asterisk" unicode="*" horiz-adv-x="628" 
d="M586 405q9 -57 0 -110h-159l112 -112q-33 -47 -77 -78l-112 112v-158q-57 -9 -110 0v158l-111 -110q-20 12 -39.5 31.5t-28.5 32.5l-9 13l111 111h-157q-6 23 -6 50.5t3 43.5l3 16h157l-111 110q12 21 31.5 40.5t32.5 28.5l13 9l111 -111v157q23 6 50.5 6t43.5 -3l16 -3
v-157l112 112q47 -34 77 -77l-112 -112h159z" />
    <glyph glyph-name="plus" unicode="+" horiz-adv-x="529" 
d="M-7 330q0 30 7 57h494q7 -27 7 -58q0 -25 -7 -62h-494v1q-7 37 -7 62zM247 72q-32 0 -57 7l-1 1v494h1q27 7 57 7q25 0 62 -7v-494v-1q-37 -7 -62 -7z" />
    <glyph glyph-name="comma" unicode="," horiz-adv-x="187" 
d="M79 -95h-73q11 69 9.5 123t-8.5 88l-7 33h121q8 -46 -4.5 -114t-37.5 -130z" />
    <glyph glyph-name="hyphen" unicode="-" horiz-adv-x="425" 
d="M-7 290q0 30 7 57h351q7 -27 7 -58q0 -25 -7 -62h-351v1q-7 37 -7 62z" />
    <glyph glyph-name="period" unicode="." horiz-adv-x="196" 
d="M-7 78q0 38 7 72h118q7 -34 7 -72q0 -32 -7 -78h-118v1q-7 45 -7 77z" />
    <glyph glyph-name="slash" unicode="/" horiz-adv-x="425" 
d="M144 0q-90 -17 -144 0l248 987q25 6 61 6t59 -3l24 -3z" />
    <glyph glyph-name="zero" unicode="0" 
d="M401 742q157 0 268 -111t111 -268q0 -156 -111 -267t-268 -111t-267.5 111t-110.5 267q0 157 110.5 268t267.5 111zM155 363q0 -62 32 -120l334 335q-54 31 -120 31q-101 0 -173.5 -72t-72.5 -174zM401 118q102 0 174 72t72 173q0 63 -32 121l-334 -335q54 -31 120 -31z
" />
    <glyph glyph-name="one" unicode="1" 
d="M557 957v-957q-88 -16 -140 0v759l-73 -73q-74 51 -99 99l172 172q25 6 60 6t57 -3z" />
    <glyph glyph-name="two" unicode="2" 
d="M258 805q-7 3 -17.5 10t-37.5 33t-46 58q94 94 227.5 94t227.5 -94q95 -95 95 -228t-95 -228l-307 -307h355q6 -25 6 -61t-3 -59l-3 -23h-557q-9 50 -7 96q1 13 2.5 24t3.5 17l1 6l408 408q53 53 53 127t-53 127t-127 53t-126 -53z" />
    <glyph glyph-name="three" unicode="3" 
d="M241 -10q-23 79 0 145q38 -8 73 -8q56 0 108 20t79 60q29 44 29.5 106.5t-27.5 114.5q-36 67 -102 76h-1l-60 -31q-53 23 -88 76l251 293h-392q-16 90 0 143h581l5 -32q5 -42 -5 -110l-1 -1l-190 -221q76 -44 128.5 -117t52.5 -169q0 -134 -83 -229q-106 -121 -285 -121
q-33 0 -73 5z" />
    <glyph glyph-name="four" unicode="4" 
d="M697 0q-82 -15 -145 0v259h-439q-17 91 0 145l439 582q28 8 64 8t58 -4l23 -4v-986zM552 404v340l-244 -340h244z" />
    <glyph glyph-name="five" unicode="5" 
d="M183 193q69 -71 171 -71q100 0 171 71t71 170q0 100 -71 171t-171 71t-171 -71q-76 17 -118 63v383h588q6 -25 6 -60.5t-3 -58.5l-3 -23h-446v-120q103 44 219 22t199 -105q113 -113 113 -272q0 -160 -113 -271q-114 -112 -271 -112q-158 0 -272 112q17 30 42.5 55.5
t41.5 35.5z" />
    <glyph glyph-name="six" unicode="6" 
d="M556 980q19 -83 0 -143q-135 0 -231 -139q-31 -45 -54 -99q88 40 187.5 22t171.5 -90q95 -95 95 -228q0 -134 -95 -229q-96 -94 -229 -94t-228 95q-42 42 -67.5 109t-27.5 119q-3 101 33.5 246.5t95.5 230.5q67 97 157 148.5t192 51.5zM527 170q54 54 54 133
q0 78 -55 133t-132.5 55t-133.5 -55q-55 -55 -55 -133q0 -76 55 -133q57 -55 133 -55q78 0 133 55h1z" />
    <glyph glyph-name="seven" unicode="7" 
d="M701 845l-123 -287h76q6 -26 6 -62.5t-3 -60.5l-3 -24h-140l-176 -411q-76 -17 -160 0l175 411h-87q-17 92 0 147h149l123 287h-435q-17 93 0 147h598q6 -26 6 -62.5t-3 -60.5z" />
    <glyph glyph-name="eight" unicode="8" 
d="M587 549q59 -43 94 -109t36 -142q1 -131 -91 -224.5t-222 -94.5t-223 90.5t-95 222.5q-1 75 32 141.5t91 111.5q-81 77 -83 192q-1 112 77 191.5t190 80.5t191.5 -77t81.5 -190q0 -112 -79 -193zM394 879q-55 -1 -93.5 -40.5t-38.5 -94.5q1 -55 40.5 -94t94.5 -38
q56 1 94.5 40.5t37.5 94.5t-40.5 93.5t-94.5 38.5zM403 122q74 1 126.5 54t51.5 127t-54.5 126.5t-127.5 51.5t-126.5 -54t-51.5 -127t54.5 -126.5t127.5 -51.5z" />
    <glyph glyph-name="nine" unicode="9" 
d="M246 -20q-18 83 0 143q136 0 232 138q32 50 53 100q-88 -40 -187.5 -22t-171.5 90q-94 94 -94 228q0 135 94 229h1q96 94 228 94q134 0 229 -95q42 -42 67 -108.5t27 -119.5q4 -100 -33 -246t-96 -231q-67 -97 -157 -148.5t-192 -51.5zM276 790q-55 -55 -55 -133t55 -133
t133 -55t133 55q55 53 55 133q0 78 -55 133t-133 55q-76 0 -133 -55z" />
    <glyph glyph-name="colon" unicode=":" horiz-adv-x="181" 
d="M-7 78q0 38 7 72h118q7 -34 7 -72q0 -32 -7 -78h-118v1q-7 45 -7 77zM0 345q0 38 7 72h118q7 -28 7 -72q0 -33 -7 -78h-118v1q-7 46 -7 77z" />
    <glyph glyph-name="semicolon" unicode=";" horiz-adv-x="181" 
d="M0 345q0 38 7 72h118q7 -28 7 -72q0 -33 -7 -78h-118v1q-7 46 -7 77zM79 -95h-73q11 69 9.5 123t-8.5 88l-7 33h121q8 -46 -4.5 -114t-37.5 -130z" />
    <glyph glyph-name="equal" unicode="=" horiz-adv-x="557" 
d="M-7 280q0 30 7 57h494q7 -27 7 -58q0 -25 -7 -62h-494v1q-7 37 -7 62zM-7 460q0 31 7 58h494q7 -27 7 -58q0 -25 -7 -62h-494q-7 37 -7 62z" />
    <glyph glyph-name="question" unicode="?" horiz-adv-x="523" 
d="M110 661q-67 -16 -131 0q0 108 76.5 184.5t184.5 76.5t184.5 -76.5t76.5 -184.5q0 -50 -16 -91t-45 -71.5t-57 -51t-65 -44.5l-15 -9q-8 -5 -26.5 -16t-26 -16t-20 -18t-17.5 -26.5t-9.5 -36.5t-4.5 -53q-67 -14 -131 0q0 81 26 137.5t51 77.5t79 55l9 6q81 52 109 81.5
t28 75.5q0 54 -38 92t-92 38t-92 -38t-38 -92zM64 78q0 38 7 72h118q7 -28 7 -72q0 -32 -7 -78h-118v1q-7 46 -7 77z" />
    <glyph glyph-name="at" unicode="@" horiz-adv-x="957" 
d="M554 336v-2v2zM472 -97q9 -27 9 -56t-5 -45l-4 -16q-99 0 -187 36t-153 104q-132 138 -132 336q0 221 117 353q117 131 309 131q209 0 347 -132q145 -137 145 -364q0 -93 -60.5 -161.5t-149.5 -68.5q-35 0 -54.5 6.5t-41.5 27.5q-54 -54 -179 -54q-93 0 -152 50t-59 124
q0 86 53 131q68 57 159 57q65 0 120 -26v-2v2q-1 47 -32.5 82.5t-87.5 35.5q-88 0 -88 -78q-19 -3 -45 -3t-43 1l-16 2q0 77 52 125.5t139 48.5q99 0 162 -57t63 -161v-120q0 -36 8 -48.5t27 -14.5h1q44 0 75.5 29t31.5 72q0 95 -32 169.5t-86 119.5t-119.5 68t-137.5 23
q-143 0 -226 -99t-83 -269q0 -154 101.5 -256.5t253.5 -102.5zM439 102q54 0 79.5 23.5t25.5 58.5t-25.5 58.5t-79.5 23.5t-79.5 -23.5t-25.5 -58.5t25.5 -58.5t79.5 -23.5z" />
    <glyph glyph-name="A" unicode="A" horiz-adv-x="1023" 
d="M986 -3q-109 -18 -187 0l-119 260h-400l-119 -260q-102 -18 -187 0l506 1103zM361 433h238l-119 300z" />
    <glyph glyph-name="B" unicode="B" horiz-adv-x="861" 
d="M168 859v-266h255q55 0 94.5 39t39.5 94t-39.5 94t-94.5 39h-255zM484 448h-313v-294h313q61 0 104 43t43 104t-43 104t-104 43zM542 0h-542v1000h476q110 0 189 -78.5t79 -189.5q0 -122 -93 -202q75 -33 121 -101.5t46 -152.5q0 -114 -81 -195t-195 -81z" />
    <glyph glyph-name="C" unicode="C" horiz-adv-x="838" 
d="M678 249q39 -17 68.5 -47t39.5 -51l11 -21q-66 -77 -154.5 -120t-187.5 -43q-128 0 -237.5 71t-173 193.5t-63.5 267.5q0 144 63.5 266.5t173 193.5t237.5 71q100 0 188 -43t154 -120q-5 -9 -14.5 -24t-39.5 -45.5t-60 -44.5q-93 112 -225 112q-129 0 -220 -106t-91 -255
t91 -255t220 -106q127 0 220 106z" />
    <glyph glyph-name="D" unicode="D" horiz-adv-x="830" 
d="M171 853v-706h102q158 0 248 93.5t90 242.5q0 183 -94.5 276.5t-241.5 93.5h-104zM280 0h-280v1000h282q85 0 159 -18.5t138 -59t110 -101.5t72 -150.5t26 -200.5q0 -100 -30.5 -181t-81 -134t-117 -88.5t-136 -51t-142.5 -15.5z" />
    <glyph glyph-name="E" unicode="E" horiz-adv-x="684" 
d="M680 154q8 -32 8 -70.5t-4 -61.5l-4 -22h-680v1000h668q8 -32 8 -67t-4 -55l-4 -19h-500v-266h361q9 -34 9 -70t-4 -55l-5 -20h-358v-294h509z" />
    <glyph glyph-name="F" unicode="F" horiz-adv-x="655" 
d="M170 0q-89 -15 -170 0v993h664q8 -32 8 -66.5t-4 -53.5l-4 -19h-497v-265h358q9 -33 9 -69t-4 -56l-5 -19h-355v-445z" />
    <glyph glyph-name="G" unicode="G" horiz-adv-x="851" 
d="M443 405q-15 78 0 142h377q2 -84 2 -151t-1 -92l-1 -26q0 -78 -51.5 -149t-136.5 -113.5t-177 -42.5q-127 0 -234.5 70t-170 191t-62.5 263q0 143 62.5 263.5t170 190.5t234.5 70q97 0 184.5 -42t152.5 -118q-5 -9 -14.5 -24t-39 -45.5t-59.5 -43.5q-91 110 -222 110
q-127 0 -216.5 -104t-89.5 -251q0 -148 89.5 -252t216.5 -104q44 0 88 15.5t79.5 56t35.5 98.5v88h-217z" />
    <glyph glyph-name="H" unicode="H" horiz-adv-x="795" 
d="M732 984v-984q-88 -15 -165 0v440h-399v-440q-87 -15 -168 0v984q35 9 76.5 9t65.5 -5l24 -4v-400h401v400q34 9 75.5 9t65.5 -5z" />
    <glyph glyph-name="I" unicode="I" horiz-adv-x="232" 
d="M168 984v-984q-87 -15 -168 0v984q36 9 78 9t66 -5z" />
    <glyph glyph-name="J" unicode="J" horiz-adv-x="607" 
d="M544 991v-985q-44 -6 -87 -6q-191 0 -324 125.5t-133 315.5q44 10 95 10q44 0 83 -10q0 -59 13.5 -102.5t41.5 -72.5t60.5 -47t80.5 -34v806q39 9 81 9q52 0 89 -9z" />
    <glyph glyph-name="K" unicode="K" horiz-adv-x="725" 
d="M270 559l434 -559q-136 -14 -212 0l-324 440v-440q-87 -14 -168 0v984q36 9 78 9t66 -5l24 -4v-315l316 316q105 14 213 0z" />
    <glyph glyph-name="L" unicode="L" horiz-adv-x="554" 
d="M0 991q34 9 75 9t65 -4l24 -5v-838h391q8 -32 8 -70t-4 -61l-4 -22h-555v991z" />
    <glyph glyph-name="M" unicode="M" horiz-adv-x="1029" 
d="M974 -5q-87 -19 -168 0v557l-319 -601l-319 601v-557q-106 -19 -168 0l18 1102l469 -789l470 789z" />
    <glyph glyph-name="N" unicode="N" horiz-adv-x="859" 
d="M802 1004l-28 -1047l-590 697v-654q-104 -18 -175 0l9 1086h2l604 -673l-3 591q40 8 85.5 8t70.5 -4z" />
    <glyph glyph-name="O" unicode="O" horiz-adv-x="956" 
d="M456 866q-121 0 -208 -109.5t-87 -258.5t86.5 -258.5t208.5 -109.5t209 109t87 259q0 149 -87 258.5t-209 109.5zM456 1032q124 0 229.5 -71.5t166.5 -194.5t61 -268t-61 -268t-166.5 -194.5t-229.5 -71.5t-229 71.5t-166 194.5t-61 268t61 268t166 194.5t229 71.5z" />
    <glyph glyph-name="P" unicode="P" horiz-adv-x="721" 
d="M380 993q133 0 227 -93t94 -226t-94 -227.5t-227 -94.5h-210v-352q-89 -15 -170 0v993h380zM368 507q68 0 111.5 48t43.5 118t-42 112.5t-113 42.5h-198v-321h198z" />
    <glyph glyph-name="Q" unicode="Q" horiz-adv-x="896" 
d="M564 9q84 -8 193 20l36 -139q-104 -27 -191 -27q-68 0 -170 23q-53 12 -82.5 16.5t-89 -1t-130.5 -28.5l-44 137q48 16 92 25q-108 69 -173 194t-65 274q0 145 61 268t165.5 194t228.5 71t229 -71t166 -194t61 -268q0 -166 -79.5 -300.5t-207.5 -193.5zM100 503
q0 -149 87 -258t208 -109t208 109t87 258t-87 258.5t-208 109.5t-208 -109.5t-87 -258.5z" />
    <glyph glyph-name="R" unicode="R" horiz-adv-x="742" 
d="M701 674q0 -122 -80 -212.5t-199 -106.5l276 -355q-137 -14 -214 0l-259 352h-55v-352q-89 -15 -170 0v993h380q133 0 227 -93t94 -226zM170 497h195q70 0 115.5 50t45.5 123t-43 117t-118 44h-195v-334z" />
    <glyph glyph-name="S" unicode="S" horiz-adv-x="787" 
d="M113 253q61 -56 142 -87t166 -31q41 0 93.5 13t52.5 41q0 27 -32 62.5t-83 73t-113 80t-124 90t-113 96t-83 105.5t-32 112q0 60 30.5 106.5t79.5 73t103.5 39.5t110.5 13q118 0 229.5 -45t198.5 -126q-19 -41 -51 -76t-70 -53q-62 57 -143 89.5t-164 32.5
q-16 0 -38 -2.5t-48 -8.5t-43.5 -18.5t-17.5 -29.5q0 -31 43 -74t107.5 -86.5t139.5 -98.5t139.5 -108.5t107.5 -120t43 -129.5q0 -60 -30.5 -106t-80 -71.5t-103.5 -38t-110 -12.5q-118 0 -230.5 43.5t-197.5 122.5q21 64 121 129z" />
    <glyph glyph-name="T" unicode="T" horiz-adv-x="688" 
d="M728 834h-274v-834q-89 -15 -170 0v834h-275q-21 88 0 159h719q9 -33 9 -72.5t-5 -62.5z" />
    <glyph glyph-name="U" unicode="U" horiz-adv-x="824" 
d="M771 996v-656q0 -158 -112 -270t-270 -112t-270 112t-112 270v656q36 10 75.5 10t61.5 -5l21 -5v-656q0 -92 66 -158t158 -66t158 66t66 158v656q35 10 74.5 10t61.5 -5z" />
    <glyph glyph-name="V" unicode="V" horiz-adv-x="947" 
d="M469 302l260 694q42 9 92 9t79 -5l29 -4l-460 -1094l-461 1094q47 9 98.5 9t79.5 -5l27 -4z" />
    <glyph glyph-name="W" unicode="W" horiz-adv-x="1248" 
d="M1229 998l-433 -1083l-195 525l-195 -525l-432 1083q41 8 86 8t70 -4l24 -4l252 -657l197 504l193 -504l256 657q37 8 81 8t70 -4z" />
    <glyph glyph-name="X" unicode="X" horiz-adv-x="789" 
d="M759 984l-293 -492l293 -492q-107 -15 -188 0l-189 351l-190 -351q-36 -7 -83 -7t-76 3l-29 4l294 492l-294 492q36 9 83 9t76 -5l29 -4l190 -351l189 351q108 21 188 0z" />
    <glyph glyph-name="Y" unicode="Y" horiz-adv-x="871" 
d="M855 994l-346 -691v-303q-107 -15 -164 0v303l-345 691q36 9 83 9t76 -5l29 -4l240 -511l239 511q108 21 188 0z" />
    <glyph glyph-name="Z" unicode="Z" horiz-adv-x="771" 
d="M10 0q-22 82 0 150l530 685h-518q-3 11 -6.5 28.5t-4.5 61.5t11 75h722q14 -90 0 -154l-522 -678h507q10 -32 10 -74t-5 -68l-5 -26h-719z" />
    <glyph glyph-name="bracketleft" unicode="[" horiz-adv-x="361" 
d="M380 -170h-380v1335h380q7 -24 7 -52.5t-3 -45.5l-4 -17h-240v-1105h240q6 -23 6 -51.5t-3 -45.5z" />
    <glyph glyph-name="backslash" unicode="\" horiz-adv-x="432" 
d="M248 0l-248 987q87 13 144 0l248 -987q-24 -8 -60 -8t-60 4z" />
    <glyph glyph-name="bracketright" unicode="]" horiz-adv-x="270" 
d="M-173 -170q-14 64 0 115h240v1105h-240q-16 62 0 115h380v-1335h-380z" />
    <glyph glyph-name="underscore" unicode="_" horiz-adv-x="572" 
d="M-7 78q0 38 7 72h494q7 -34 7 -72q0 -32 -7 -78h-494v1q-7 45 -7 77z" />
    <glyph glyph-name="a" unicode="a" horiz-adv-x="696" 
d="M638 155q11 -43 10.5 -77.5t-6.5 -55.5l-6 -22h-22.5h-22t-17.5 1t-18.5 3t-16 5.5t-17.5 10t-16 14.5q-70 -71 -232 -71q-121 0 -197.5 64.5t-76.5 161.5q0 110 69 169q85 74 206 74q83 0 156 -34v-2q0 61 -41.5 108.5t-114.5 47.5q-46 0 -80 -22t-34 -79
q-25 -4 -58.5 -4t-54.5 2l-22 2q0 100 67.5 163t180.5 63q127 0 209 -74.5t82 -208.5v-157q0 -54 15 -68t58 -14zM281 308q-69 0 -102.5 -31t-33.5 -75q0 -45 33 -76t103 -31t103 31t33 76q0 44 -33 75t-103 31z" />
    <glyph glyph-name="b" unicode="b" horiz-adv-x="712" 
d="M369 644q124 0 211.5 -99.5t87.5 -240.5q0 -140 -87.5 -240t-211.5 -100q-122 0 -209 98q-12 -18 -19 -26q-10 -11 -21 -18t-19 -11t-22.5 -5.5t-21.5 -2t-26.5 0t-26.5 0.5q-20 75 0 148q38 0 49.5 11.5t11.5 61.5v636q74 16 138 0v-270q76 57 166 57zM358 114
q67 0 111 55t44 140t-43.5 138.5t-111.5 53.5q-65 0 -108 -49.5t-47 -128.5v-14v-13q4 -80 47 -131t108 -51z" />
    <glyph glyph-name="c" unicode="c" horiz-adv-x="564" 
d="M438 180q71 -46 99 -99q-43 -56 -103.5 -88.5t-128.5 -32.5q-127 0 -217.5 103t-90.5 248t90 248t218 103q68 0 128.5 -32t103.5 -88q-12 -23 -35.5 -47t-41.5 -37l-18 -12q-46 68 -125 68q-71 0 -115.5 -55t-44.5 -142q0 -88 45 -145.5t115 -57.5q74 0 121 66z" />
    <glyph glyph-name="d" unicode="d" horiz-adv-x="677" 
d="M310 114q64 0 107 51t47 131q0 2 0.5 6.5t0.5 6.5q0 3 -0.5 7t-0.5 7q-4 79 -46.5 128.5t-107.5 49.5q-69 0 -112 -53.5t-43 -138.5t44 -140t111 -55zM298 644q92 0 166 -57v270q29 7 63.5 7t54.5 -4l21 -3v-636q0 -50 11.5 -61.5t49.5 -11.5q8 -32 8 -69t-4 -58l-4 -21
q-7 0 -27 -0.5t-26.5 0t-21.5 2t-22.5 5.5t-18.5 11t-21 18q-11 13 -20 26q-87 -98 -209 -98q-123 0 -210.5 100t-87.5 240q0 141 87.5 240.5t210.5 99.5z" />
    <glyph glyph-name="e" unicode="e" horiz-adv-x="651" 
d="M538 540q43 -47 63.5 -126t15.5 -160h-446q0 -45 35.5 -78.5t76.5 -46.5t76 -13q22 0 46 3l37 5q5 -35 5 -72t-3 -56l-2 -19l-22 -2q-37 -5 -65 -5q-162 0 -248 75q-107 95 -107 258q0 135 93 237q96 102 223 102q126 0 222 -102zM171 351h292q0 72 -43 112.5t-103 40.5
q-59 0 -102.5 -42t-43.5 -111z" />
    <glyph glyph-name="f" unicode="f" horiz-adv-x="398" 
d="M347 742q-107 0 -107 -117h114q6 -26 6 -56t-3 -47l-3 -18h-114v-504q-30 -4 -67 -4t-59 2l-22 2v504h-85q-16 70 0 121h86q5 113 73.5 182t184.5 69q9 -39 8 -68.5t-7 -47.5z" />
    <glyph glyph-name="g" unicode="g" horiz-adv-x="656" 
d="M463 633q74 16 138 0v-644q0 -135 -74 -224t-190 -89q-53 0 -118.5 35.5t-109.5 80.5q36 53 102 113q29 -35 67.5 -58t69.5 -23q115 0 115 165v40q-75 -59 -167 -59q-122 0 -209 99t-87 239t87 239t209 99q92 0 167 -59v46zM307 119q67 0 110.5 54.5t43.5 139.5
q0 84 -43 137t-111 53t-110.5 -53t-42.5 -137q0 -85 43 -139.5t110 -54.5z" />
    <glyph glyph-name="h" unicode="h" horiz-adv-x="639" 
d="M588 0q-84 -16 -155 0l-4 307q-1 82 -35 138.5t-100 56.5t-110.5 -51.5t-44.5 -131.5v-319q-78 -13 -139 0v856q74 16 139 0v-268q76 58 166 58q128 0 205.5 -87.5t77.5 -251.5v-307z" />
    <glyph glyph-name="i" unicode="i" horiz-adv-x="264" 
d="M201 620h-201q-7 -28 -7 -59q0 -32 7 -59h51v-502q43 -10 78 -10q39 0 72 10v620zM129 866q44 0 72 -7v-118q-34 -7 -72 -7q-33 0 -78 7v118h1q46 7 77 7z" />
    <glyph glyph-name="j" unicode="j" horiz-adv-x="268" 
d="M135 864q47 0 76 -7v-119q-35 -7 -76 -7q-13 0 -41.5 3.5t-36.5 3.5v119h1q36 7 77 7zM205 627h-205q-6 -25 -6 -51q0 -35 6 -68h60v-527q0 -165 -114 -165q-62 0 -105 51q-48 -28 -100 -114q83 -86 194 -86q82 0 145 46t94 117t31 151v646z" />
    <glyph glyph-name="k" unicode="k" horiz-adv-x="527" 
d="M263 413l301 -413q-125 -13 -197 0l-207 310l-20 29v-339q-88 -16 -140 0v867q24 6 59 6t58 -3l23 -3v-379l150 150q98 13 198 0z" />
    <glyph glyph-name="l" unicode="l" horiz-adv-x="250" 
d="M0 863h196v-863q-36 -7 -70 -7q-57 0 -79 7v743h-47q-6 14 -6 65q0 40 6 55z" />
    <glyph glyph-name="m" unicode="m" horiz-adv-x="1101" 
d="M736 645q126 0 212.5 -97.5t86.5 -225.5v-322q-38 -7 -83 -7q-38 0 -72 7v322q0 77 -40.5 128.5t-114.5 51.5q-68 0 -106.5 -54.5t-38.5 -125.5v-322q-38 -7 -82 -7q-38 0 -69 7v322q0 78 -31.5 129t-104.5 51q-70 0 -112 -51t-42 -123v-328q-38 -7 -80 -7q-37 0 -59 7
v632q19 6 51 6q38 0 74 -6l14 -45q74 58 165 58q122 0 212 -125q90 125 220 125z" />
    <glyph glyph-name="n" unicode="n" horiz-adv-x="644" 
d="M578 321v-321q-84 -16 -151 0v321q0 84 -36.5 131t-101.5 47t-108 -48t-43 -124v-327q-87 -16 -138 0v629q20 6 52 6t54 -3l22 -3l10 -44q74 57 162 57q133 0 220 -122q58 -79 58 -199z" />
    <glyph glyph-name="o" unicode="o" horiz-adv-x="692" 
d="M314 652q130 0 222 -100t92 -242t-92 -242t-222 -100q-131 0 -223 100t-92 242t92 242t223 100zM155 306q0 -82 41 -140.5t118 -58.5q76 0 117 58.5t41 140.5q0 80 -42 138.5t-116 59.5q-75 1 -117 -58t-42 -140z" />
    <glyph glyph-name="p" unicode="p" horiz-adv-x="645" 
d="M303 649q86 0 155.5 -50t106 -127t36.5 -162q0 -84 -36.5 -161t-106 -127t-155.5 -50q-91 0 -165 57q0 -135 -4 -170q-16 -133 -109 -167q-37 -13 -86 -13q-9 42 -9 84q0 37 9 64q40 -1 50.5 14.5t10.5 57.5v738q34 7 74 7q35 0 64 -7v-45q74 57 165 57zM292 121
q73 0 113.5 59.5t40.5 135.5q0 77 -40 134t-114 57q-73 0 -113.5 -57t-40.5 -134q0 -76 40.5 -135.5t113.5 -59.5z" />
    <glyph glyph-name="q" unicode="q" horiz-adv-x="656" 
d="M307 121q73 0 113.5 59.5t40.5 135.5q0 77 -40 134t-114 57q-73 0 -113.5 -57t-40.5 -134q0 -76 40.5 -135.5t113.5 -59.5zM296 649q91 0 165 -57v45q29 7 64 7q40 0 74 -7v-738q0 -42 10.5 -57.5t50.5 -14.5q9 -27 9 -64q0 -42 -9 -84q-42 0 -74.5 9.5t-53.5 26.5
t-35.5 40.5t-21 51t-11 58.5t-4 63.5t0.5 64.5v36q-74 -57 -165 -57q-86 0 -155.5 50t-105.5 127t-36 161q0 85 36 162t105.5 127t155.5 50z" />
    <glyph glyph-name="r" unicode="r" horiz-adv-x="431" 
d="M399 630q7 -36 7 -69q0 -16 -7 -47q-90 10 -145.5 -44.5t-55.5 -146.5v-323q-30 -10 -75 -10q-27 0 -70 10v507h-53q-7 28 -7 61q0 34 7 61h175l16 -52q76 56 169 56q20 0 39 -3z" />
    <glyph glyph-name="s" unicode="s" horiz-adv-x="599" 
d="M0 80q2 8 7.5 20t29.5 39t56 42q47 -44 127 -64t140 -4q42 10 51 38q5 14 -2 27q-27 45 -152 74l-2 1q-192 44 -246 145q-33 65 -6 134q34 96 155 124q94 22 204.5 -5.5t180.5 -91.5q-4 -8 -12 -21t-32.5 -40.5t-48.5 -39.5q-44 41 -121.5 60t-139.5 5q-48 -13 -58 -39
q-4 -12 -1 -22q24 -45 157 -76q184 -43 240 -140q37 -63 15 -136q-31 -98 -147 -129q-42 -12 -91 -12q-83 0 -165.5 30t-138.5 81z" />
    <glyph glyph-name="t" unicode="t" horiz-adv-x="425" 
d="M388 555q0 -10 -1 -19q-3 -30 -6 -40h-114v-3v-493q-77 -19 -149 0l-1 493v3h-118q-2 10 -5 40q-1 9 -1 19q0 29 1 39q1 12 5 29v1h118v190l150 60v-250h114v-1q5 -16 6 -29q1 -10 1 -39z" />
    <glyph glyph-name="u" unicode="u" horiz-adv-x="634" 
d="M-2 309v321q84 16 152 0q-2 -107 -2 -187.5t1 -106.5l1 -27q0 -179 138 -179q65 0 108 48.5t43 124.5v327q87 16 138 0v-630q-21 -6 -54 -6t-55 3l-22 3l-7 44q-74 -57 -163 -57q-141 0 -226 116q-52 74 -52 206z" />
    <glyph glyph-name="v" unicode="v" horiz-adv-x="613" 
d="M625 631l-230 -631q-40 -9 -93 -9q-16 0 -54.5 3t-39.5 6q-1 4 -63 172.5t-114.5 312.5t-52.5 146h1q34 6 85 6t85 -6l153 -486l152 486h1q34 6 85 6q57 0 85 -6z" />
    <glyph glyph-name="w" unicode="w" horiz-adv-x="1079" 
d="M1091 631l-230 -631v0q-96 -18 -186 0v0l-129 385l-130 -385v0q-96 -18 -186 0v0l-230 631h1q89 16 169 0h1l152 -478l137 436l16 42v0q29 6 72 6q34 0 67 -6h1l15 -42l137 -436l153 478v0q85 19 170 0z" />
    <glyph glyph-name="x" unicode="x" horiz-adv-x="636" 
d="M386 325l210 -325q-108 -21 -177 0l-121 188l-121 -188q-31 -9 -75 -9t-73 5l-29 4l210 325h-1l-198 307q37 9 81.5 9t69.5 -5l26 -4l110 -170v0l110 170q92 21 176 0l-197 -307h-1z" />
    <glyph glyph-name="y" unicode="y" horiz-adv-x="678" 
d="M642 633h1l-243 -633l-134 -334q-76 -16 -161 0l140 344l-257 623q29 7 72.5 7t71.5 -4l29 -3l163 -441l146 441q26 6 69 6t73 -3z" />
    <glyph glyph-name="z" unicode="z" horiz-adv-x="586" 
d="M8 0q-18 69 0 125l331 367h-309q-22 80 0 138h511q12 -75 0 -128l-334 -362h314q8 -26 8 -61t-4 -57l-4 -22h-513z" />
    <glyph glyph-name="braceleft" unicode="{" horiz-adv-x="331" 
d="M-87 394v-1q-14 74 0 144q51 0 75.5 18.5t36.5 75t12 172.5q0 128 90.5 219t218.5 91q6 -28 6 -63.5t-3 -57.5l-3 -21q-69 0 -118 -49t-49 -119q0 -94 -6 -155t-27 -111q-18 -42 -45 -72q27 -28 45 -71q21 -50 27 -111t6 -155q0 -70 49 -119t118 -49q9 -24 9 -59.5
t-5 -58.5l-4 -24q-128 0 -218.5 91t-90.5 219q0 116 -12 172.5t-36.5 75t-75.5 18.5z" />
    <glyph glyph-name="bar" unicode="|" horiz-adv-x="206" 
d="M143 1020v-1173q-75 -12 -143 0v1173q30 8 66 8t56 -4z" />
    <glyph glyph-name="braceright" unicode="}" horiz-adv-x="476" 
d="M434 393v1q-52 0 -76.5 -18.5t-36.5 -75t-12 -172.5q0 -128 -90.5 -219t-218.5 -91q-20 89 0 142q69 0 118 49t49 119q0 185 33 266q18 43 45 71q-27 30 -45 72q-33 81 -33 266q0 70 -49 119t-118 49q-13 80 0 142q128 0 218.5 -91t90.5 -219q0 -116 12 -172.5t36.5 -75
t76.5 -18.5q6 -31 6 -67t-3 -56z" />
    <glyph glyph-name="asciitilde" unicode="~" horiz-adv-x="637" 
d="M575 747q-96 -48 -181 -48q-62 0 -122 25q-44 19 -99 19t-86 -7t-34 -10q-30 57 -34 122q168 48 294 -5q78 -33 208 16q18 -16 31.5 -44t17.5 -48z" />
    <glyph glyph-name="dieresis" unicode="&#xa8;" horiz-adv-x="441" 
d="M-7 798q0 38 7 72h118q7 -34 7 -72q0 -32 -7 -78h-118v1q-7 45 -7 77zM235 798q0 38 7 72h118q7 -28 7 -72q0 -32 -7 -78h-118v1q-7 45 -7 77z" />
    <glyph glyph-name="acute" unicode="&#xb4;" horiz-adv-x="552" 
d="M321 729q-30 0 -64 45q46 45 82 99t49 85l13 31l105 -74q-24 -50 -89.5 -118t-95.5 -68z" />
    <glyph glyph-name="Aacute" unicode="&#xc1;" horiz-adv-x="1023" 
d="M480 1142q-30 0 -63 45q46 45 81.5 99t48.5 85l13 31l106 -74q-24 -50 -90 -118t-96 -68zM986 -3q-109 -18 -187 0l-119 260h-400l-119 -260q-102 -18 -187 0l506 1103zM361 433h238l-119 300z" />
    <glyph glyph-name="Eacute" unicode="&#xc9;" horiz-adv-x="684" 
d="M680 154q8 -32 8 -70.5t-4 -61.5l-4 -22h-680v1000h668q8 -32 8 -67t-4 -55l-4 -19h-500v-266h361q9 -34 9 -70t-4 -55l-5 -20h-358v-294h509zM281 1089q-30 0 -64 45q46 45 82 99t49 85l13 31l105 -74q-24 -50 -89.5 -118t-95.5 -68z" />
    <glyph glyph-name="Iacute" unicode="&#xcd;" horiz-adv-x="236" 
d="M67 1089q-30 0 -63 45q46 45 81.5 99t48.5 85l13 31l106 -74q-24 -50 -90 -118t-96 -68zM168 984v-984q-87 -15 -168 0v984q36 9 78 9t66 -5z" />
    <glyph glyph-name="Ntilde" unicode="&#xd1;" horiz-adv-x="859" 
d="M647 1144q-6 -5 -26 -14.5t-65 -21.5t-90 -12q-62 0 -122 25q-93 39 -218 2h-1q-30 57 -34 122q168 48 294 -5q78 -33 208 16q18 -16 31.5 -44t17.5 -48zM802 1004l-28 -1047l-590 697v-654q-104 -18 -175 0l9 1086h2l604 -673l-3 591q40 8 85.5 8t70.5 -4z" />
    <glyph glyph-name="Oacute" unicode="&#xd3;" horiz-adv-x="956" 
d="M456 866q-121 0 -208 -109.5t-87 -258.5t86.5 -258.5t208.5 -109.5t209 109t87 259q0 149 -87 258.5t-209 109.5zM456 1032q124 0 229.5 -71.5t166.5 -194.5t61 -268t-61 -268t-166.5 -194.5t-229.5 -71.5t-229 71.5t-166 194.5t-61 268t61 268t166 194.5t229 71.5z
M399 1089q-30 0 -63 45q46 45 81.5 99t48.5 85l13 31l106 -74q-24 -50 -90 -118t-96 -68z" />
    <glyph glyph-name="Uacute" unicode="&#xda;" horiz-adv-x="824" 
d="M355 1089q-30 0 -63 45q46 45 81.5 99t48.5 85l13 31l106 -74q-24 -50 -90 -118t-96 -68zM771 996q-79 22 -158 0v-656q0 -92 -66 -158t-158 -66t-158 66t-66 158v656q-78 22 -158 0v-656q0 -158 112 -270t270 -112t270 112t112 270v656z" />
    <glyph glyph-name="aacute" unicode="&#xe1;" horiz-adv-x="644" 
d="M608 147q10 -41 9.5 -73.5t-5.5 -53.5l-6 -20h-22h-20.5t-17 0.5t-17.5 3t-15 6t-16.5 9t-15.5 13.5q-67 -67 -221 -67q-115 0 -188 61.5t-73 153.5q0 105 65 161q82 70 197 70q79 0 148 -32v-2q0 59 -39.5 103.5t-108.5 44.5q-108 0 -108 -95q-24 -4 -56.5 -4t-53.5 2
l-20 2q0 94 64.5 154t172.5 60q122 0 199.5 -70.5t77.5 -198.5v-149q0 -52 14.5 -65.5t55.5 -13.5zM268 293q-67 0 -98.5 -29.5t-31.5 -71.5t31.5 -71.5t98.5 -29.5q66 0 97.5 29.5t31.5 71.5t-31.5 71.5t-97.5 29.5zM268 720q-30 0 -63 45q46 45 81.5 99t48.5 85l13 31
l106 -74q-24 -50 -90 -118t-96 -68z" />
    <glyph glyph-name="eacute" unicode="&#xe9;" horiz-adv-x="634" 
d="M527 539q42 -46 62.5 -123.5t15.5 -156.5h-428q0 -34 18.5 -59.5t47 -39t56.5 -20t53 -6.5q22 0 45 3l37 4q4 -34 4 -75t-2 -64l-2 -24l-23 -3q-28 -4 -63 -4q-148 0 -243 83q-105 93 -105 253q0 134 92 232q93 101 217 101q125 0 218 -101zM167 354h287q0 70 -42.5 110
t-100.5 40t-101 -41t-43 -109zM308 720q-30 0 -63 45q46 45 81.5 99t48.5 85l13 31l106 -74q-24 -50 -90 -118t-96 -68z" />
    <glyph glyph-name="iacute" unicode="&#xed;" horiz-adv-x="268" 
d="M65 720q-30 0 -63 45q46 45 81.5 99t48.5 85l13 31l106 -74q-24 -50 -90 -118t-96 -68zM201 620h-201q-7 -28 -7 -59q0 -32 7 -59h51v-502q43 -10 78 -10q39 0 72 10v620z" />
    <glyph glyph-name="ntilde" unicode="&#xf1;" horiz-adv-x="641" 
d="M575 747q-96 -48 -181 -48q-62 0 -122 25q-44 19 -99 19t-86 -7t-34 -10q-30 57 -34 122q168 48 294 -5q78 -33 208 16q18 -16 31.5 -44t17.5 -48zM578 321v-321q-84 -16 -151 0v321q0 84 -36.5 131t-101.5 47t-108 -48t-43 -124v-327q-87 -16 -138 0v629q20 6 52 6
t54 -3l22 -3l10 -44q74 57 162 57q133 0 220 -122q58 -79 58 -199z" />
    <glyph glyph-name="oacute" unicode="&#xf3;" horiz-adv-x="693" 
d="M324 720q-30 0 -63 45q46 45 81.5 99t48.5 85l13 31l106 -74q-24 -50 -90 -118t-96 -68zM323 662q135 0 230 -103.5t95 -249.5t-95 -249t-230 -103q-134 0 -229 103t-95 249t95 249.5t229 103.5zM145 309q0 -81 53 -146t126 -65t125.5 65t52.5 146t-52.5 146t-125.5 65
t-126 -65t-53 -146z" />
    <glyph glyph-name="uacute" unicode="&#xfa;" horiz-adv-x="635" 
d="M294 720q-30 0 -63 45q46 45 81.5 99t48.5 85l13 31l106 -74q-24 -50 -90 -118t-96 -68zM-2 309q0 -132 52 -206q85 -116 226 -116q89 0 163 57l7 -44q83 -13 131 0v630q-23 7 -57.5 7t-57.5 -3l-23 -4v-327q0 -76 -43 -124.5t-108 -48.5q-138 0 -138 179q-4 80 0 321
q-30 7 -68 7t-61 -3l-23 -4v-321z" />
    <glyph glyph-name="udieresis" unicode="&#xfc;" horiz-adv-x="632" 
d="M105 798q0 44 7 72h118q7 -34 7 -72q0 -32 -7 -78h-118v1q-7 45 -7 77zM347 798q0 38 7 72h118q7 -34 7 -72q0 -32 -7 -78h-118v1q-7 45 -7 77zM-2 309q0 -132 52 -206q85 -116 226 -116q89 0 163 57l7 -44q83 -13 131 0v630q-23 7 -57.5 7t-57.5 -3l-23 -4v-327
q0 -76 -43 -124.5t-108 -48.5q-138 0 -138 179q-4 80 0 321q-30 7 -68 7t-61 -3l-23 -4v-321z" />
    <glyph glyph-name="quotedblleft" unicode="&#x201c;" horiz-adv-x="305" 
d="M226 964h73q-11 -69 -9.5 -123t8.5 -87l7 -34h-121q-8 46 4.5 114t37.5 130zM47 964h73q-11 -69 -9.5 -123t8.5 -87l7 -34h-121q-8 46 4.5 114t37.5 130z" />
    <glyph glyph-name="quotedblright" unicode="&#x201d;" horiz-adv-x="467" 
d="M79 720h-73q11 69 9.5 123t-8.5 87l-7 34h121q8 -47 -4.5 -115t-37.5 -129zM258 720h-73q11 69 9.5 123t-8.5 87l-7 34h121q8 -47 -4.5 -115t-37.5 -129z" />
    <glyph glyph-name="quotedblbase" unicode="&#x201e;" horiz-adv-x="467" 
 />
    <glyph glyph-name="ellipsis" unicode="&#x2026;" horiz-adv-x="584" 
d="M-7 78q0 38 7 72h118q7 -34 7 -72q0 -32 -7 -78h-118v1q-7 45 -7 77zM225 78q0 38 7 72h118q7 -34 7 -72q0 -32 -7 -78h-118v1q-7 46 -7 77zM459 78q0 38 7 72h118q7 -34 7 -72q0 -32 -7 -78h-118v1q-7 45 -7 77z" />
    <glyph glyph-name="minus" unicode="&#x2212;" horiz-adv-x="568" 
d="M-7 290q0 30 7 57h494q7 -27 7 -58q0 -25 -7 -62h-494v1q-7 37 -7 62z" />
    <glyph glyph-name="fi" unicode="&#xfb01;" horiz-adv-x="606" 
d="M477 866q-31 0 -77 -7h-1v-118q45 -7 78 -7q38 0 72 7v118q-28 7 -72 7zM229 502v118h320v-620q-33 -10 -72 -10q-35 0 -78 10v502h-170zM230 615v-615q-66 -10 -138 0v504h-85q-16 70 0 121h86q5 113 73.5 182t184.5 69q9 -39 8 -68.5t-7 -47.5l-5 -18q-56 0 -86.5 -35
t-30.5 -92z" />
    </font>
</defs>
</svg>
